%TF.GenerationSoftware,KiCad,Pcbnew,10.0.6*%
%TF.CreationDate,2026-10-03T17:52:17+02:00*%
%TF.ProjectId,KINO_D4_Carrier_A0_2,4b494e4f-5f44-4345-9f43-617272696572,rev?*%
%TF.SameCoordinates,Original*%
%TF.FileFunction,Copper,L3,Inr*%
%TF.FilePolarity,Positive*%
%FSLAX46Y46*%
G04 Gerber Fmt 4.6, Leading zero omitted, Abs format (unit mm)*
G04 Created by KiCad (PCBNEW 10.0.6) date 2026-10-03 17:52:17*
%MOMM*%
%LPD*%
G01*
G04 APERTURE LIST*
G04 Aperture macros list*
%AMRoundRect*
0 Rectangle with rounded corners*
0 $1 Rounding radius*
0 $2 $3 $4 $5 $6 $7 $8 $9 X,Y pos of 4 corners*
0 Add a 4 corners polygon primitive as box body*
4,1,4,$2,$3,$4,$5,$6,$7,$8,$9,$2,$3,0*
0 Add four circle primitives for the rounded corners*
1,1,$1+$1,$2,$3*
1,1,$1+$1,$4,$5*
1,1,$1+$1,$6,$7*
1,1,$1+$1,$8,$9*
0 Add four rect primitives between the rounded corners*
20,1,$1+$1,$2,$3,$4,$5,0*
20,1,$1+$1,$4,$5,$6,$7,0*
20,1,$1+$1,$6,$7,$8,$9,0*
20,1,$1+$1,$8,$9,$2,$3,0*%
G04 Aperture macros list end*
%TA.AperFunction,ComponentPad*%
%ADD10O,1.800000X1.800000*%
%TD*%
%TA.AperFunction,ComponentPad*%
%ADD11O,1.000000X2.100000*%
%TD*%
%TA.AperFunction,ComponentPad*%
%ADD12O,1.000000X1.800000*%
%TD*%
%TA.AperFunction,ComponentPad*%
%ADD13RoundRect,0.250001X1.099999X1.099999X-1.099999X1.099999X-1.099999X-1.099999X1.099999X-1.099999X0*%
%TD*%
%TA.AperFunction,ComponentPad*%
%ADD14C,2.700000*%
%TD*%
%TA.AperFunction,ComponentPad*%
%ADD15R,1.700000X1.700000*%
%TD*%
%TA.AperFunction,ComponentPad*%
%ADD16C,1.700000*%
%TD*%
%TA.AperFunction,HeatsinkPad*%
%ADD17C,0.500000*%
%TD*%
%TA.AperFunction,ComponentPad*%
%ADD18RoundRect,0.250000X0.600000X0.600000X-0.600000X0.600000X-0.600000X-0.600000X0.600000X-0.600000X0*%
%TD*%
%TA.AperFunction,ViaPad*%
%ADD19C,0.600000*%
%TD*%
%TA.AperFunction,Conductor*%
%ADD20C,0.150000*%
%TD*%
%TA.AperFunction,Conductor*%
%ADD21C,0.200000*%
%TD*%
%TA.AperFunction,Conductor*%
%ADD22C,0.250000*%
%TD*%
%TA.AperFunction,Conductor*%
%ADD23C,0.300000*%
%TD*%
%TA.AperFunction,Conductor*%
%ADD24C,0.500000*%
%TD*%
%TA.AperFunction,Conductor*%
%ADD25C,1.000000*%
%TD*%
%TA.AperFunction,Conductor*%
%ADD26C,1.200000*%
%TD*%
%TA.AperFunction,Conductor*%
%ADD27C,2.000000*%
%TD*%
%TA.AperFunction,Conductor*%
%ADD28C,1.400000*%
%TD*%
%TA.AperFunction,Conductor*%
%ADD29C,1.500000*%
%TD*%
%TA.AperFunction,Conductor*%
%ADD30C,0.600000*%
%TD*%
%TA.AperFunction,Conductor*%
%ADD31C,0.400000*%
%TD*%
%TA.AperFunction,Conductor*%
%ADD32C,3.000000*%
%TD*%
G04 APERTURE END LIST*
D10*
%TO.N,CAM2_D0*%
%TO.C,J300*%
X89885000Y-77085000D03*
%TO.N,CAM2_SYNC*%
X89885000Y-79625000D03*
%TO.N,CAM2_D2_STRAP*%
X89885000Y-82165000D03*
%TO.N,CAM2_D3*%
X89885000Y-84705000D03*
%TO.N,CAM2_D4*%
X89885000Y-87245000D03*
%TO.N,CAM2_D5*%
X89885000Y-89785000D03*
%TO.N,CAM2_TX*%
X89885000Y-92325000D03*
%TO.N,CAM2_RX*%
X105125000Y-92325000D03*
%TO.N,CAM2_D8_SD*%
X105125000Y-89785000D03*
%TO.N,CAM2_D9_SD*%
X105125000Y-87245000D03*
%TO.N,CAM2_D10_SD*%
X105125000Y-84705000D03*
%TO.N,CAM2_3V3*%
X105125000Y-82165000D03*
%TO.N,GND*%
X105125000Y-79625000D03*
%TO.N,CAM2_5V*%
X105125000Y-77085000D03*
%TD*%
D11*
%TO.N,GND*%
%TO.C,J1000*%
X154680000Y-112105000D03*
D12*
X154680000Y-116285000D03*
D11*
X163320000Y-112105000D03*
D12*
X163320000Y-116285000D03*
%TD*%
D10*
%TO.N,CAM3_D0*%
%TO.C,J400*%
X111885000Y-77085000D03*
%TO.N,CAM3_SYNC*%
X111885000Y-79625000D03*
%TO.N,CAM3_D2_STRAP*%
X111885000Y-82165000D03*
%TO.N,CAM3_D3*%
X111885000Y-84705000D03*
%TO.N,CAM3_D4*%
X111885000Y-87245000D03*
%TO.N,CAM3_D5*%
X111885000Y-89785000D03*
%TO.N,CAM3_TX*%
X111885000Y-92325000D03*
%TO.N,CAM3_RX*%
X127125000Y-92325000D03*
%TO.N,CAM3_D8_SD*%
X127125000Y-89785000D03*
%TO.N,CAM3_D9_SD*%
X127125000Y-87245000D03*
%TO.N,CAM3_D10_SD*%
X127125000Y-84705000D03*
%TO.N,CAM3_3V3*%
X127125000Y-82165000D03*
%TO.N,GND*%
X127125000Y-79625000D03*
%TO.N,CAM3_5V*%
X127125000Y-77085000D03*
%TD*%
%TO.N,CAM1_D0*%
%TO.C,J200*%
X67885000Y-77085000D03*
%TO.N,CAM1_SYNC*%
X67885000Y-79625000D03*
%TO.N,CAM1_D2_STRAP*%
X67885000Y-82165000D03*
%TO.N,CAM1_D3*%
X67885000Y-84705000D03*
%TO.N,CAM1_D4*%
X67885000Y-87245000D03*
%TO.N,CAM1_D5*%
X67885000Y-89785000D03*
%TO.N,CAM1_TX*%
X67885000Y-92325000D03*
%TO.N,CAM1_RX*%
X83125000Y-92325000D03*
%TO.N,CAM1_D8_SD*%
X83125000Y-89785000D03*
%TO.N,CAM1_D9_SD*%
X83125000Y-87245000D03*
%TO.N,CAM1_D10_SD*%
X83125000Y-84705000D03*
%TO.N,CAM1_3V3*%
X83125000Y-82165000D03*
%TO.N,GND*%
X83125000Y-79625000D03*
%TO.N,CAM1_5V*%
X83125000Y-77085000D03*
%TD*%
D13*
%TO.N,PACK_PLUS*%
%TO.C,J1100*%
X144150000Y-113000000D03*
D14*
%TO.N,PACK_NTC*%
X140190000Y-113000000D03*
%TO.N,GND*%
X136230000Y-113000000D03*
%TD*%
D10*
%TO.N,CAM4_D0*%
%TO.C,J500*%
X133885000Y-77085000D03*
%TO.N,CAM4_SYNC*%
X133885000Y-79625000D03*
%TO.N,CAM4_D2_STRAP*%
X133885000Y-82165000D03*
%TO.N,CAM4_D3*%
X133885000Y-84705000D03*
%TO.N,CAM4_D4*%
X133885000Y-87245000D03*
%TO.N,CAM4_D5*%
X133885000Y-89785000D03*
%TO.N,CAM4_TX*%
X133885000Y-92325000D03*
%TO.N,CAM4_RX*%
X149125000Y-92325000D03*
%TO.N,CAM4_D8_SD*%
X149125000Y-89785000D03*
%TO.N,CAM4_D9_SD*%
X149125000Y-87245000D03*
%TO.N,CAM4_D10_SD*%
X149125000Y-84705000D03*
%TO.N,CAM4_3V3*%
X149125000Y-82165000D03*
%TO.N,GND*%
X149125000Y-79625000D03*
%TO.N,CAM4_5V*%
X149125000Y-77085000D03*
%TD*%
D15*
%TO.N,GND*%
%TO.C,J201*%
X70425000Y-65460000D03*
D16*
%TO.N,CAM1_3V3*%
X70425000Y-68000000D03*
%TO.N,CAM1_D0*%
X72965000Y-65460000D03*
%TO.N,CAM1_D2_STRAP*%
X72965000Y-68000000D03*
%TO.N,CAM1_D3*%
X75505000Y-65460000D03*
%TO.N,CAM1_D4*%
X75505000Y-68000000D03*
%TO.N,CAM1_D5*%
X78045000Y-65460000D03*
%TO.N,CAM1_D8_SD*%
X78045000Y-68000000D03*
%TO.N,CAM1_D9_SD*%
X80585000Y-65460000D03*
%TO.N,CAM1_D10_SD*%
X80585000Y-68000000D03*
%TD*%
D15*
%TO.N,GND*%
%TO.C,J401*%
X114425000Y-65460000D03*
D16*
%TO.N,CAM3_3V3*%
X114425000Y-68000000D03*
%TO.N,CAM3_D0*%
X116965000Y-65460000D03*
%TO.N,CAM3_D2_STRAP*%
X116965000Y-68000000D03*
%TO.N,CAM3_D3*%
X119505000Y-65460000D03*
%TO.N,CAM3_D4*%
X119505000Y-68000000D03*
%TO.N,CAM3_D5*%
X122045000Y-65460000D03*
%TO.N,CAM3_D8_SD*%
X122045000Y-68000000D03*
%TO.N,CAM3_D9_SD*%
X124585000Y-65460000D03*
%TO.N,CAM3_D10_SD*%
X124585000Y-68000000D03*
%TD*%
D17*
%TO.N,GND*%
%TO.C,U1201*%
X93000000Y-103450000D03*
X93000000Y-104550000D03*
%TD*%
D15*
%TO.N,GND*%
%TO.C,J301*%
X92425000Y-65460000D03*
D16*
%TO.N,CAM2_3V3*%
X92425000Y-68000000D03*
%TO.N,CAM2_D0*%
X94965000Y-65460000D03*
%TO.N,CAM2_D2_STRAP*%
X94965000Y-68000000D03*
%TO.N,CAM2_D3*%
X97505000Y-65460000D03*
%TO.N,CAM2_D4*%
X97505000Y-68000000D03*
%TO.N,CAM2_D5*%
X100045000Y-65460000D03*
%TO.N,CAM2_D8_SD*%
X100045000Y-68000000D03*
%TO.N,CAM2_D9_SD*%
X102585000Y-65460000D03*
%TO.N,CAM2_D10_SD*%
X102585000Y-68000000D03*
%TD*%
D17*
%TO.N,GND*%
%TO.C,U701*%
X157525000Y-115250000D03*
X158500000Y-114525000D03*
X158500000Y-115250000D03*
X158500000Y-115975000D03*
X159475000Y-115250000D03*
%TD*%
D15*
%TO.N,GND*%
%TO.C,J501*%
X136425000Y-65460000D03*
D16*
%TO.N,CAM4_3V3*%
X136425000Y-68000000D03*
%TO.N,CAM4_D0*%
X138965000Y-65460000D03*
%TO.N,CAM4_D2_STRAP*%
X138965000Y-68000000D03*
%TO.N,CAM4_D3*%
X141505000Y-65460000D03*
%TO.N,CAM4_D4*%
X141505000Y-68000000D03*
%TO.N,CAM4_D5*%
X144045000Y-65460000D03*
%TO.N,CAM4_D8_SD*%
X144045000Y-68000000D03*
%TO.N,CAM4_D9_SD*%
X146585000Y-65460000D03*
%TO.N,CAM4_D10_SD*%
X146585000Y-68000000D03*
%TD*%
D15*
%TO.N,GND*%
%TO.C,J101*%
X73750000Y-55000000D03*
D16*
%TO.N,C6_3V3_TEST*%
X76290000Y-55000000D03*
%TO.N,C6_RX_SERVICE*%
X78830000Y-55000000D03*
%TO.N,C6_TX_SERVICE*%
X81370000Y-55000000D03*
%TO.N,C6_BOOT_SERVICE*%
X83910000Y-55000000D03*
%TO.N,C6_EN_SERVICE*%
X86450000Y-55000000D03*
%TD*%
D18*
%TO.N,P4_3V3_SENSE*%
%TO.C,J100*%
X58540000Y-68000000D03*
D16*
%TO.N,P4_5V*%
X56000000Y-68000000D03*
%TO.N,P4_3V3_TEST*%
X58540000Y-70540000D03*
%TO.N,P4_5V*%
X56000000Y-70540000D03*
%TO.N,GND*%
X58540000Y-73080000D03*
X56000000Y-73080000D03*
%TO.N,P4_TX1*%
X58540000Y-75620000D03*
%TO.N,P4_RX3*%
X56000000Y-75620000D03*
%TO.N,P4_RX1*%
X58540000Y-78160000D03*
%TO.N,CAM_GLOBAL_EN*%
X56000000Y-78160000D03*
%TO.N,P4_TX2*%
X58540000Y-80700000D03*
%TO.N,P4_TX4*%
X56000000Y-80700000D03*
%TO.N,P4_RX2*%
X58540000Y-83240000D03*
%TO.N,P4_RX4*%
X56000000Y-83240000D03*
%TO.N,N/C*%
X58540000Y-85780000D03*
%TO.N,GND*%
X56000000Y-85780000D03*
%TO.N,P4_TX3*%
X58540000Y-88320000D03*
%TO.N,C6_3V3_TEST*%
X56000000Y-88320000D03*
%TO.N,SYNC_MASTER*%
X58540000Y-90860000D03*
%TO.N,C6_RX_SERVICE*%
X56000000Y-90860000D03*
%TO.N,SHUTTER_N*%
X58540000Y-93400000D03*
%TO.N,C6_TX_SERVICE*%
X56000000Y-93400000D03*
%TO.N,P4_SDA*%
X58540000Y-95940000D03*
%TO.N,C6_BOOT_SERVICE*%
X56000000Y-95940000D03*
%TO.N,P4_SCL*%
X58540000Y-98480000D03*
%TO.N,C6_EN_SERVICE*%
X56000000Y-98480000D03*
%TD*%
D19*
%TO.N,HAPTIC_REG*%
X158650000Y-73900000D03*
X161950000Y-68800000D03*
%TO.N,I2C_SCL*%
X88000000Y-90350000D03*
X155750000Y-115400000D03*
X67200000Y-94450000D03*
X108750000Y-102400000D03*
X77450000Y-99000000D03*
X161450000Y-76450000D03*
X88400000Y-107450000D03*
X83300000Y-112300000D03*
X76100000Y-104750000D03*
X161750000Y-102800000D03*
X161750000Y-97200000D03*
X88000000Y-98300000D03*
X109500000Y-67750000D03*
X74450000Y-95500000D03*
X161450000Y-72750000D03*
X88000000Y-65950000D03*
X75050000Y-100100000D03*
X84750000Y-101450000D03*
X139400000Y-108250000D03*
%TO.N,I2C_SDA*%
X162000000Y-104850000D03*
X85650000Y-93600000D03*
X137850000Y-118450000D03*
X162900000Y-101000000D03*
X110300000Y-90200000D03*
X162900000Y-96400000D03*
X104750000Y-102350000D03*
X76000000Y-103950000D03*
X155750000Y-118450000D03*
X72900000Y-96050000D03*
X92250000Y-59500000D03*
X88350000Y-99950000D03*
X161450000Y-72000000D03*
X92500000Y-101750000D03*
X138800000Y-107750000D03*
X164700000Y-109700000D03*
X63300000Y-96750000D03*
X137850000Y-117250000D03*
X91400000Y-109000000D03*
X100350000Y-101750000D03*
X76000000Y-100300000D03*
X69500000Y-96050000D03*
X93350000Y-55650000D03*
X110850000Y-66850000D03*
%TO.N,GND*%
X90500000Y-53625000D03*
X69205000Y-88125000D03*
X70790000Y-81250000D03*
X70510100Y-100185000D03*
X152250000Y-114925000D03*
X160150000Y-73800000D03*
X160838052Y-65550500D03*
X96705000Y-88000000D03*
X151982538Y-104257538D03*
X109912000Y-103000000D03*
X117825000Y-105250000D03*
X107338000Y-102950000D03*
X74705000Y-86050000D03*
X157600000Y-107950000D03*
X59700500Y-97240500D03*
X149500000Y-99925000D03*
X74705000Y-88000000D03*
X113034689Y-88863070D03*
X148625000Y-57550000D03*
X96400000Y-107325000D03*
X64707100Y-68692900D03*
X79200000Y-107700000D03*
X135833090Y-88077751D03*
X100000000Y-59175000D03*
X94943146Y-84972368D03*
X140000000Y-106000000D03*
X107922118Y-60483776D03*
X80805000Y-91850000D03*
X160657000Y-74542900D03*
X92757100Y-102543000D03*
X70775000Y-95000000D03*
X140705000Y-86050000D03*
X106630000Y-103543000D03*
X151740000Y-68335100D03*
X158082000Y-117145000D03*
X122500000Y-96175000D03*
X74730000Y-82900000D03*
X135215000Y-85364900D03*
X65612500Y-62050000D03*
X69034689Y-88863070D03*
X162009576Y-115994180D03*
X89650500Y-74122820D03*
X145252081Y-109702081D03*
X130275000Y-103500000D03*
X91034689Y-88863070D03*
X134500000Y-96175000D03*
X116642000Y-85050000D03*
X93537500Y-58175000D03*
X140705000Y-88000000D03*
X123325000Y-105250000D03*
X118705000Y-88000000D03*
X150500000Y-59225000D03*
X91215100Y-85364900D03*
X125500000Y-96175000D03*
X118875000Y-103500000D03*
X79689900Y-100550000D03*
X104925000Y-108000000D03*
X137410000Y-91700000D03*
X93650000Y-109350000D03*
X153060000Y-76239900D03*
X81150000Y-107750000D03*
X96125000Y-115950000D03*
X64675000Y-96000000D03*
X107860000Y-106750000D03*
X104500000Y-109225000D03*
X92790000Y-81250000D03*
X133000000Y-106900000D03*
X152500000Y-72825000D03*
X158900000Y-74975000D03*
X130275000Y-107000000D03*
X95566983Y-72649362D03*
X62500000Y-63225000D03*
X104900000Y-116250000D03*
X113205000Y-88125000D03*
X124805000Y-91850000D03*
X160000000Y-68550000D03*
X66887500Y-96025000D03*
X146805000Y-91850000D03*
X160332000Y-117145000D03*
X136765000Y-71164900D03*
X79973093Y-73777606D03*
X69215100Y-85364900D03*
X93950000Y-102600000D03*
X152000000Y-69300000D03*
X132600000Y-96170000D03*
X158775000Y-68000000D03*
X58400000Y-57600000D03*
X145000000Y-105300000D03*
X118705000Y-86050000D03*
X69842500Y-88000000D03*
X108750000Y-65500000D03*
X136605000Y-73725000D03*
X124375000Y-103500000D03*
X59700000Y-71800000D03*
X124950000Y-55525000D03*
X164000000Y-109000000D03*
X112377000Y-103235000D03*
X91842500Y-88000000D03*
X146500000Y-99925000D03*
X113842000Y-88000000D03*
X118875000Y-107000000D03*
X106312000Y-116300000D03*
X123973093Y-73777606D03*
X77620000Y-115550000D03*
X114605000Y-73725000D03*
X91205000Y-88125000D03*
X101973093Y-73777606D03*
X140730000Y-82900000D03*
X140000000Y-101250000D03*
X93410000Y-91700000D03*
X118730000Y-82900000D03*
X61500000Y-75000000D03*
X104000000Y-59175000D03*
X81852400Y-104035000D03*
X116755000Y-84375000D03*
X63350000Y-103000000D03*
X96705000Y-86050000D03*
X109500000Y-109775000D03*
X150050000Y-116450000D03*
X140675000Y-64250000D03*
X145963393Y-76550500D03*
X158200000Y-66750000D03*
X88300000Y-105650000D03*
X101950000Y-105650000D03*
X117125000Y-105250000D03*
X99250000Y-54475000D03*
X114790000Y-81250000D03*
X122625000Y-105250000D03*
X135205000Y-88125000D03*
X138642000Y-85050000D03*
X102805000Y-91850000D03*
X104175000Y-99000000D03*
X86250000Y-106775000D03*
X157200000Y-70600000D03*
X73750500Y-80825500D03*
X128500000Y-96175000D03*
X96730000Y-82900000D03*
X144538000Y-62550000D03*
X64675000Y-66900000D03*
X128825000Y-105250000D03*
X141250000Y-58775000D03*
X106100000Y-68420000D03*
X121575000Y-107000000D03*
X144175000Y-57500000D03*
X136790000Y-81250000D03*
%TO.N,HAPTIC_EN*%
X95450000Y-55550000D03*
X90900000Y-54925000D03*
X161400000Y-71250000D03*
X118150000Y-56450000D03*
X118150000Y-57950000D03*
X99250000Y-57850000D03*
X159500000Y-76450000D03*
X152500000Y-71175000D03*
%TO.N,MB_3V3*%
X107290000Y-66800000D03*
X79300000Y-64400000D03*
X156250000Y-74050000D03*
X96350000Y-106450000D03*
X81950000Y-68550000D03*
X123850000Y-91650000D03*
X72200000Y-100100000D03*
X95000000Y-102500000D03*
X123510000Y-59850000D03*
X76450000Y-86350000D03*
X117600000Y-52500000D03*
X104000000Y-107200000D03*
X67200000Y-62000000D03*
X103400000Y-77750000D03*
X110300000Y-67650000D03*
X72400000Y-64050000D03*
X95000000Y-90400000D03*
X81250000Y-77050000D03*
X96600000Y-51675000D03*
X155950000Y-70200000D03*
X122800000Y-110250000D03*
X109500000Y-108900000D03*
X78650000Y-83150000D03*
X162425000Y-71125000D03*
X72750000Y-103200000D03*
X107350000Y-51650000D03*
X115400000Y-91970000D03*
X76750000Y-103200000D03*
X132650000Y-90450000D03*
X91250000Y-105850000D03*
X98600000Y-86100000D03*
%TO.N,MOTOR_P*%
X157300000Y-71700000D03*
X160620000Y-58500000D03*
%TO.N,MOTOR_N*%
X157900000Y-65600000D03*
X157250000Y-73050000D03*
%TO.N,USB_VBUS*%
X155300000Y-92500000D03*
X155600000Y-99300000D03*
X161000000Y-107600000D03*
X155600000Y-98400000D03*
X156150000Y-92900000D03*
X160200000Y-107600000D03*
X156600000Y-107400000D03*
%TO.N,PD_COMMON_SOURCE*%
X156550000Y-100850000D03*
%TO.N,PD_GATE*%
X155250000Y-97300000D03*
X152550000Y-101350000D03*
X147000000Y-105800000D03*
X159550000Y-99375000D03*
%TO.N,CAM2_SYNC*%
X95450000Y-83650000D03*
X99400000Y-81925000D03*
%TO.N,CAM2_TX*%
X101600000Y-86800000D03*
%TO.N,CAM2_3V3*%
X88600000Y-83450000D03*
X88600000Y-73600000D03*
X102805000Y-87950000D03*
%TO.N,CAM2_5V*%
X105125000Y-72850000D03*
X104050000Y-68450000D03*
%TO.N,CAM2_EN*%
X105250000Y-65200000D03*
X110600000Y-58750000D03*
%TO.N,CHG_BTST1*%
X142950000Y-104850000D03*
%TO.N,CHG_SW1*%
X140600000Y-104450000D03*
X144250000Y-96000000D03*
X144250000Y-96800000D03*
X140600000Y-105250000D03*
%TO.N,CHG_TS*%
X152300000Y-111375000D03*
X146200000Y-103350000D03*
%TO.N,CAM4_5V_ISO*%
X134950000Y-68450000D03*
%TO.N,CAM4_5V*%
X147400000Y-70600000D03*
%TO.N,PACK_FUSED*%
X161250000Y-114650000D03*
X150150000Y-111302500D03*
%TO.N,BOOST_5V*%
X125175000Y-101800000D03*
X125875000Y-108700000D03*
X114875000Y-108700000D03*
X119675000Y-101800000D03*
X112350000Y-107100000D03*
X120375000Y-101800000D03*
X105950000Y-104100000D03*
X114175000Y-108700000D03*
X125175000Y-108700000D03*
X119675000Y-108700000D03*
X120375000Y-108700000D03*
X125875000Y-101800000D03*
%TO.N,SOFT_KILL*%
X86200000Y-65300000D03*
X86200000Y-89700000D03*
X83400000Y-109450000D03*
X90300000Y-57520000D03*
X87400000Y-92800000D03*
X87250000Y-109550000D03*
%TO.N,POWER_KILL_N*%
X80350000Y-107850000D03*
%TO.N,CHG_REGN*%
X147500000Y-109700000D03*
X147600000Y-106500000D03*
X134100000Y-109700000D03*
X142500000Y-114800000D03*
X145050000Y-106425000D03*
X149650000Y-112625000D03*
%TO.N,USB_CC2*%
X162150000Y-108600000D03*
X159350000Y-108600000D03*
%TO.N,USB_CC1*%
X153900000Y-109800000D03*
X158600000Y-109800000D03*
%TO.N,CAM3_SYNC*%
X117450000Y-83650000D03*
X110100000Y-82900000D03*
X121400000Y-81925000D03*
%TO.N,CAM3_TX*%
X123600000Y-86800000D03*
%TO.N,CAM3_3V3*%
X124805000Y-87950000D03*
X128950000Y-68550000D03*
%TO.N,CAM3_5V*%
X124000000Y-64000000D03*
%TO.N,CAM3_5V_ISO*%
X116750000Y-60400000D03*
%TO.N,SYS_5V*%
X109500000Y-69400000D03*
X96865000Y-69400000D03*
X118865000Y-69400000D03*
X110200000Y-69400000D03*
X108800000Y-69400000D03*
X123970000Y-111900000D03*
X78200000Y-107700000D03*
X140865000Y-69400000D03*
X123970000Y-111100000D03*
X73590000Y-69400000D03*
X109250000Y-89400000D03*
X95590000Y-69400000D03*
X102000000Y-109000000D03*
X119350000Y-111350000D03*
X107850000Y-89400000D03*
X104860000Y-66570000D03*
X108550000Y-89400000D03*
X143610000Y-60300000D03*
X109250000Y-92700000D03*
X77610000Y-60600000D03*
X107850000Y-92700000D03*
X108750000Y-61600000D03*
X108550000Y-92700000D03*
X117590000Y-69400000D03*
X102000000Y-108300000D03*
X113100000Y-67360000D03*
X102000000Y-109700000D03*
X74865000Y-69400000D03*
X109750000Y-61600000D03*
X139590000Y-69400000D03*
X123970000Y-110300000D03*
%TO.N,BAT_PROTECTED*%
X134600000Y-107000000D03*
X75450000Y-97500000D03*
X133200000Y-105600000D03*
X134600000Y-106300000D03*
X116300000Y-100700000D03*
X134600000Y-107700000D03*
X116300000Y-106200000D03*
X150150000Y-109000000D03*
%TO.N,SYNC_MASTER*%
X65000000Y-102750000D03*
X117905000Y-88650000D03*
X73905000Y-88650000D03*
X95905000Y-88650000D03*
X139905000Y-88650000D03*
X97150000Y-91700000D03*
%TO.N,CAM1_EN*%
X112450000Y-59900000D03*
X68200000Y-68700000D03*
X70850000Y-69350000D03*
X73300000Y-73650000D03*
X74500000Y-63450000D03*
X112450000Y-63450000D03*
%TO.N,CHG_PMID*%
X141200000Y-102350000D03*
%TO.N,CAM1_SYNC*%
X66100000Y-82900000D03*
%TO.N,CAM1_TX*%
X71150000Y-92325000D03*
X79600000Y-86800000D03*
X79600000Y-92300000D03*
%TO.N,CAM1_3V3*%
X80805000Y-87950000D03*
X83600000Y-67200000D03*
%TO.N,CAM1_5V*%
X68700000Y-62350000D03*
X77000000Y-82650000D03*
X74950000Y-62350000D03*
X66400000Y-69400000D03*
%TO.N,CAM1_5V_ISO*%
X68950000Y-69300000D03*
%TO.N,RTC_INT_N*%
X86800000Y-90350000D03*
X86800000Y-65950000D03*
X86800000Y-97650000D03*
X89000000Y-106050000D03*
X89700000Y-58170000D03*
%TO.N,RTC_BACKUP*%
X95125000Y-109800000D03*
%TO.N,PD_RESET*%
X161150000Y-100950000D03*
X160950000Y-106362500D03*
%TO.N,PD_DISCH*%
X153100000Y-109850000D03*
X161750000Y-103900000D03*
%TO.N,CHG_SDRV*%
X136700000Y-103150000D03*
%TO.N,CAM4_EN*%
X126150000Y-63450000D03*
X136950000Y-63450000D03*
X135700000Y-70700000D03*
%TO.N,CAM4_SYNC*%
X143400000Y-81925000D03*
X132100000Y-82900000D03*
X139450000Y-83650000D03*
%TO.N,CAM4_TX*%
X145650000Y-86850000D03*
%TO.N,CAM4_3V3*%
X146805000Y-87950000D03*
%TO.N,CAM3_EN*%
X113200000Y-64050000D03*
X114600000Y-72600000D03*
X121900000Y-54250000D03*
X113200000Y-60450000D03*
X113200000Y-53400000D03*
%TO.N,COVER_N*%
X155300000Y-74050000D03*
X88600000Y-54270000D03*
X154200000Y-68200000D03*
X87600000Y-50850000D03*
%TO.N,CAM2_5V_ISO*%
X90950000Y-68450000D03*
X92350000Y-73800000D03*
%TO.N,P4_5V_ISO*%
X62000000Y-105850000D03*
X63500000Y-105850000D03*
X99000000Y-112900000D03*
X99000000Y-113650000D03*
X62750000Y-105850000D03*
X99000000Y-114400000D03*
%TO.N,P4_5V*%
X63500000Y-110700000D03*
X62000000Y-110700000D03*
X62750000Y-110700000D03*
%TO.N,COVER_RAW*%
X157900000Y-67500000D03*
X157250000Y-74100000D03*
X155200000Y-78350000D03*
%TO.N,FLASH_SYNC*%
X97950000Y-99150000D03*
X94350000Y-99850000D03*
X85700000Y-101000000D03*
%TO.N,SYS_RAW*%
X105400000Y-95300000D03*
X82050000Y-107950000D03*
X121200000Y-99500000D03*
X105400000Y-97100000D03*
X77900000Y-109550000D03*
X106750000Y-96200000D03*
X127200000Y-100300000D03*
X113200000Y-106300000D03*
X120400000Y-97000000D03*
X120400000Y-98800000D03*
X126000000Y-99500000D03*
X122000000Y-99500000D03*
X106750000Y-97100000D03*
X123600000Y-100300000D03*
X121200000Y-100300000D03*
X127200000Y-99500000D03*
X126000000Y-100300000D03*
X128000000Y-99500000D03*
X124400000Y-99500000D03*
X128000000Y-100300000D03*
X122800000Y-99500000D03*
X116800000Y-110250000D03*
X92300000Y-100600000D03*
X122000000Y-100300000D03*
X105400000Y-96200000D03*
X123600000Y-99500000D03*
X122800000Y-100300000D03*
X120400000Y-97900000D03*
X125200000Y-99500000D03*
X106750000Y-95300000D03*
X89650000Y-102600000D03*
%TO.N,MAIN_COMMON*%
X108700000Y-114350000D03*
X112500000Y-114365000D03*
X107500000Y-111600000D03*
%TO.N,MAIN_GATE*%
X114700000Y-113700000D03*
%TO.N,REMOTE_FILTER*%
X63900000Y-60000000D03*
%TO.N,IMU_INT*%
X90300000Y-58830000D03*
X96000000Y-93350000D03*
X87400000Y-65300000D03*
X87400000Y-89700000D03*
%TO.N,CHG_VBUS*%
X143700000Y-110400000D03*
X143500000Y-103000000D03*
%TO.N,FN_N*%
X89900000Y-55580000D03*
X152750000Y-62750000D03*
X152750000Y-59500000D03*
%TO.N,SHUTTER_N*%
X57625000Y-114850000D03*
X54000000Y-60600000D03*
X60900000Y-114850000D03*
%TO.N,CHG_BATP*%
X137000000Y-106700000D03*
%TO.N,CHG_PROG*%
X137100000Y-104750000D03*
%TO.N,CHG_BTST2*%
X136000000Y-106650000D03*
%TO.N,CHG_SW2*%
X135750000Y-96000000D03*
X139400000Y-105250000D03*
X139400000Y-104450000D03*
X135750000Y-96800000D03*
%TO.N,CAM3_SHUNT_OUT*%
X120100000Y-72650000D03*
X112300000Y-66570000D03*
X118850000Y-76200000D03*
%TO.N,CAM4_SHUNT_OUT*%
X144430000Y-61000000D03*
X110750000Y-61600000D03*
%TO.N,CAM1_SHUNT_OUT*%
X78430000Y-61500000D03*
X107750000Y-61600000D03*
%TO.N,CAM2_SHUNT_OUT*%
X104830000Y-67390000D03*
%TO.N,CAM2_FAULT_N*%
X94200000Y-60260000D03*
X99260000Y-56875000D03*
%TO.N,GAUGE_1V8*%
X156050000Y-113600000D03*
X161950000Y-114250000D03*
%TO.N,P4_BUS_EN*%
X123600000Y-86000000D03*
X66500000Y-103830000D03*
X145600000Y-86050000D03*
X132750000Y-86050000D03*
X106400000Y-86000000D03*
X81750000Y-92900000D03*
X73500000Y-97300000D03*
X94000000Y-85350000D03*
X88600000Y-85950000D03*
X100650000Y-85300000D03*
X79600000Y-86000000D03*
%TO.N,BOOST_ENABLE*%
X84600000Y-106325000D03*
X113475000Y-111200000D03*
X84600000Y-116600000D03*
X99000000Y-116600000D03*
X110200000Y-111000000D03*
X109400000Y-117200000D03*
X113400000Y-105500000D03*
%TO.N,BOOST_COMP*%
X104900000Y-103700000D03*
X103550000Y-108250000D03*
X106575000Y-111800000D03*
%TO.N,EXP_RESET_N*%
X101300000Y-58250000D03*
X101200000Y-54650000D03*
X104050000Y-60000000D03*
X99050000Y-52700000D03*
%TO.N,CAM_GLOBAL_EN*%
X59850000Y-87650000D03*
X118550000Y-54000000D03*
%TO.N,CAM1_FAULT_N*%
X99100000Y-55900000D03*
X90000000Y-62150000D03*
X83050000Y-62150000D03*
%TO.N,POWER_INT_N*%
X75850000Y-106000000D03*
X83300000Y-103950000D03*
X83900000Y-103850000D03*
X90300000Y-56230000D03*
X84500000Y-89700000D03*
X84500000Y-65300000D03*
X84500000Y-95600000D03*
%TO.N,CHARGE_CE_N*%
X140250000Y-107750000D03*
X146100000Y-117300000D03*
%TO.N,CAM1_REQ*%
X105450000Y-57800000D03*
X116100000Y-57800000D03*
%TO.N,CAM2_REQ*%
X96650000Y-54275000D03*
X109650000Y-55850000D03*
X116100000Y-55850000D03*
%TO.N,CAM3_REQ*%
X94800000Y-59150000D03*
X119000000Y-55850000D03*
X102600000Y-54600000D03*
%TO.N,CAM4_REQ*%
X99350000Y-59650000D03*
X96600000Y-56850000D03*
X121850000Y-58100000D03*
%TO.N,CAM3_FAULT_N*%
X125200000Y-71600000D03*
X126800000Y-65335000D03*
X126800000Y-71600000D03*
X119000000Y-62150000D03*
X93850000Y-62150000D03*
%TO.N,CAM4_FAULT_N*%
X93400000Y-62800000D03*
X96650000Y-58175000D03*
X144650000Y-69550000D03*
X139800000Y-62800000D03*
X96350000Y-59600000D03*
%TO.N,POWER_PB_N*%
X76625000Y-116500000D03*
X84050000Y-105025000D03*
%TO.N,P4_SDA*%
X69250000Y-97675000D03*
X65150000Y-96750000D03*
%TO.N,P4_SCL*%
X69750000Y-98325000D03*
X66300000Y-99950000D03*
%TO.N,P4_TX3*%
X115405000Y-89300000D03*
X64900000Y-76400000D03*
X64600000Y-70900000D03*
%TO.N,P4_RX1*%
X60700000Y-75000000D03*
X70205000Y-84375000D03*
%TO.N,AUX_3V3*%
X74450000Y-102500000D03*
X67450000Y-104350000D03*
X91300000Y-105050000D03*
X93000000Y-109850000D03*
X91300000Y-102800000D03*
X67450000Y-102200000D03*
%TO.N,P4_TX4*%
X61500000Y-70000000D03*
X137405000Y-89300000D03*
%TO.N,P4_RX4*%
X136210000Y-84370000D03*
X60500000Y-84510000D03*
X65500000Y-70600000D03*
%TO.N,P4_RX3*%
X60700000Y-71800000D03*
X59850000Y-76250000D03*
X114205000Y-84375000D03*
%TO.N,P4_TX1*%
X67150000Y-74800000D03*
X69250000Y-73900000D03*
X71405000Y-89300000D03*
%TO.N,P4_RX2*%
X92205000Y-84375000D03*
X63300000Y-78700000D03*
X71100000Y-73100000D03*
%TO.N,C6_3V3_TEST*%
X69450000Y-61600000D03*
%TO.N,P4_TX2*%
X93405000Y-89300000D03*
X61800000Y-71100000D03*
X61500000Y-72400000D03*
%TD*%
%TO.N,HAPTIC_REG*%
D20*
X161950000Y-68800000D02*
X158650000Y-72100000D01*
X158650000Y-72100000D02*
X158650000Y-73900000D01*
%TO.N,I2C_SCL*%
D21*
X73050000Y-94100000D02*
X67850000Y-94100000D01*
X155750000Y-115400000D02*
X155750000Y-117850000D01*
X101550000Y-117850000D02*
X155750000Y-117850000D01*
X108750000Y-102400000D02*
X106600000Y-102400000D01*
X74450000Y-95500000D02*
X73050000Y-94100000D01*
X106600000Y-102400000D02*
X102500000Y-98300000D01*
X67850000Y-94100000D02*
X67500000Y-94450000D01*
X86150000Y-112300000D02*
X88400000Y-110050000D01*
X108700000Y-64050000D02*
X89900000Y-64050000D01*
X88000000Y-65950000D02*
X88000000Y-90350000D01*
X165300000Y-97800000D02*
X164700000Y-97200000D01*
X109500000Y-67750000D02*
X109500000Y-64850000D01*
X102500000Y-98300000D02*
X88000000Y-98300000D01*
X85550000Y-102750000D02*
X85550000Y-112300000D01*
X165300000Y-117250000D02*
X165300000Y-97800000D01*
X164700000Y-117850000D02*
X165300000Y-117250000D01*
X164700000Y-97200000D02*
X161750000Y-97200000D01*
X89900000Y-64050000D02*
X88000000Y-65950000D01*
X67500000Y-94450000D02*
X67200000Y-94450000D01*
X139400000Y-108250000D02*
X138400000Y-109250000D01*
X88400000Y-110050000D02*
X88400000Y-107450000D01*
X100950000Y-98300000D02*
X100950000Y-117250000D01*
X138400000Y-109250000D02*
X138400000Y-117850000D01*
X84750000Y-101950000D02*
X85550000Y-102750000D01*
X83300000Y-112300000D02*
X86150000Y-112300000D01*
X155750000Y-117850000D02*
X164700000Y-117850000D01*
X84750000Y-101450000D02*
X84750000Y-101950000D01*
X100950000Y-117250000D02*
X101550000Y-117850000D01*
X109500000Y-64850000D02*
X108700000Y-64050000D01*
%TO.N,I2C_SDA*%
X88350000Y-99950000D02*
X90400000Y-102000000D01*
X137850000Y-108700000D02*
X137850000Y-117250000D01*
X138800000Y-107750000D02*
X137850000Y-108700000D01*
X92200000Y-102050000D02*
X90400000Y-102050000D01*
X162900000Y-101000000D02*
X162900000Y-103950000D01*
X69500000Y-96050000D02*
X68550000Y-95100000D01*
X68550000Y-95100000D02*
X64650000Y-95100000D01*
X64650000Y-95100000D02*
X63300000Y-96450000D01*
X162100000Y-72000000D02*
X162900000Y-72800000D01*
X90400000Y-102000000D02*
X90400000Y-108000000D01*
X90400000Y-108000000D02*
X91400000Y-109000000D01*
X100950000Y-118450000D02*
X155750000Y-118450000D01*
X110850000Y-66850000D02*
X110850000Y-75400000D01*
X100350000Y-101750000D02*
X100350000Y-117850000D01*
X162900000Y-72800000D02*
X162900000Y-96400000D01*
X110650000Y-75600000D02*
X110650000Y-89850000D01*
X161450000Y-72000000D02*
X162100000Y-72000000D01*
X162900000Y-103950000D02*
X162000000Y-104850000D01*
X92500000Y-101750000D02*
X92200000Y-102050000D01*
X110650000Y-89850000D02*
X110300000Y-90200000D01*
X110850000Y-75400000D02*
X110650000Y-75600000D01*
X63300000Y-96450000D02*
X63300000Y-96750000D01*
X100350000Y-117850000D02*
X100950000Y-118450000D01*
%TO.N,HAPTIC_EN*%
D20*
X95450000Y-55550000D02*
X96950000Y-55550000D01*
X118150000Y-56450000D02*
X118150000Y-57950000D01*
X96950000Y-55550000D02*
X99250000Y-57850000D01*
%TO.N,MB_3V3*%
D22*
X67200000Y-62000000D02*
X67200000Y-62900000D01*
X67600000Y-63300000D02*
X71650000Y-63300000D01*
X67200000Y-62900000D02*
X67600000Y-63300000D01*
D23*
X155950000Y-70200000D02*
X155950000Y-73750000D01*
X117600000Y-52500000D02*
X123110000Y-52500000D01*
X81250000Y-69250000D02*
X81950000Y-68550000D01*
X107000000Y-108900000D02*
X109500000Y-108900000D01*
X72100000Y-63750000D02*
X72400000Y-64050000D01*
X123510000Y-52900000D02*
X123510000Y-59850000D01*
X81250000Y-77050000D02*
X81250000Y-69250000D01*
D22*
X71650000Y-63300000D02*
X72100000Y-63750000D01*
D23*
X123110000Y-52500000D02*
X123510000Y-52900000D01*
X155950000Y-73750000D02*
X156250000Y-74050000D01*
X104000000Y-107200000D02*
X105300000Y-107200000D01*
X105300000Y-107200000D02*
X107000000Y-108900000D01*
%TO.N,MOTOR_P*%
D21*
X156600000Y-59700000D02*
X157800000Y-58500000D01*
X156600000Y-71000000D02*
X156600000Y-59700000D01*
X157300000Y-71700000D02*
X156600000Y-71000000D01*
X157800000Y-58500000D02*
X160620000Y-58500000D01*
%TO.N,MOTOR_N*%
X157900000Y-72400000D02*
X157900000Y-69500000D01*
X157200000Y-68800000D02*
X157200000Y-66300000D01*
X157900000Y-69500000D02*
X157200000Y-68800000D01*
X157200000Y-66300000D02*
X157900000Y-65600000D01*
X157250000Y-73050000D02*
X157900000Y-72400000D01*
%TO.N,PD_GATE*%
X159550000Y-99375000D02*
X157475000Y-97300000D01*
X157475000Y-97300000D02*
X155250000Y-97300000D01*
%TO.N,CAM2_D0*%
X93690000Y-66730000D02*
X93690000Y-74380000D01*
X94960000Y-65460000D02*
X93690000Y-66730000D01*
X90990000Y-77080000D02*
X89890000Y-77080000D01*
X93690000Y-74380000D02*
X90990000Y-77080000D01*
%TO.N,CAM2_D2_STRAP*%
X90990000Y-82170000D02*
X89890000Y-82170000D01*
X94960000Y-78200000D02*
X90990000Y-82170000D01*
X94960000Y-68000000D02*
X94960000Y-78200000D01*
%TO.N,CAM2_D3*%
X90990000Y-84700000D02*
X89890000Y-84700000D01*
X96230000Y-66730000D02*
X96230000Y-79460000D01*
X97500000Y-65460000D02*
X96230000Y-66730000D01*
X96230000Y-79460000D02*
X90990000Y-84700000D01*
%TO.N,CAM2_D4*%
X97500000Y-68000000D02*
X97500000Y-80740000D01*
X90990000Y-87250000D02*
X89890000Y-87250000D01*
X97500000Y-80740000D02*
X90990000Y-87250000D01*
%TO.N,CAM2_D5*%
X98770000Y-82000000D02*
X90990000Y-89780000D01*
X90990000Y-89780000D02*
X89890000Y-89780000D01*
X98770000Y-66730000D02*
X98770000Y-82000000D01*
X100040000Y-65460000D02*
X98770000Y-66730000D01*
%TO.N,CAM2_D8_SD*%
X100040000Y-68000000D02*
X100040000Y-86100000D01*
X100040000Y-86100000D02*
X103720000Y-89780000D01*
X103720000Y-89780000D02*
X105120000Y-89780000D01*
%TO.N,CAM2_D9_SD*%
X101310000Y-66730000D02*
X101310000Y-84840000D01*
X103720000Y-87250000D02*
X105120000Y-87250000D01*
X101310000Y-84840000D02*
X103720000Y-87250000D01*
X102580000Y-65460000D02*
X101310000Y-66730000D01*
%TO.N,CAM2_D10_SD*%
X103720000Y-84700000D02*
X105120000Y-84700000D01*
X102580000Y-68000000D02*
X102580000Y-83560000D01*
X102580000Y-83560000D02*
X103720000Y-84700000D01*
%TO.N,CAM2_5V*%
D24*
X104050000Y-71780000D02*
X105120000Y-72850000D01*
X104050000Y-68450000D02*
X104050000Y-71780000D01*
%TO.N,CHG_SW1*%
D25*
X144250000Y-100800000D02*
X144250000Y-96800000D01*
X140600000Y-104450000D02*
X144250000Y-100800000D01*
X140600000Y-104450000D02*
X140600000Y-105250000D01*
X144250000Y-96000000D02*
X144250000Y-96800000D01*
%TO.N,PACK_FUSED*%
D21*
X150150000Y-111302500D02*
X150952500Y-110500000D01*
X157100000Y-110500000D02*
X161250000Y-114650000D01*
X150952500Y-110500000D02*
X157100000Y-110500000D01*
%TO.N,BOOST_5V*%
D23*
X107000000Y-105150000D02*
X105950000Y-104100000D01*
X110400000Y-105150000D02*
X107000000Y-105150000D01*
X112350000Y-107100000D02*
X110400000Y-105150000D01*
D26*
X125175000Y-101800000D02*
X120375000Y-101800000D01*
%TO.N,SOFT_KILL*%
D21*
X85250000Y-94950000D02*
X87400000Y-92800000D01*
X86350000Y-104750000D02*
X86350000Y-100050000D01*
X86200000Y-65300000D02*
X86200000Y-89700000D01*
X87250000Y-109550000D02*
X87250000Y-105650000D01*
X86350000Y-100050000D02*
X85250000Y-98950000D01*
X87250000Y-105650000D02*
X86350000Y-104750000D01*
X85250000Y-98950000D02*
X85250000Y-94950000D01*
%TO.N,CHG_REGN*%
X147500000Y-106953554D02*
X147429289Y-106882843D01*
X147429289Y-106882843D02*
X147429289Y-106670711D01*
X147500000Y-110470000D02*
X149650000Y-112620000D01*
X147500000Y-109700000D02*
X147500000Y-110470000D01*
X147429289Y-106670711D02*
X147600000Y-106500000D01*
X147500000Y-109700000D02*
X147500000Y-106953554D01*
%TO.N,CAM3_D0*%
X116960000Y-65460000D02*
X115690000Y-66730000D01*
X112990000Y-77080000D02*
X111890000Y-77080000D01*
X115690000Y-74380000D02*
X112990000Y-77080000D01*
X115690000Y-66730000D02*
X115690000Y-74380000D01*
%TO.N,CAM3_D2_STRAP*%
X116960000Y-78200000D02*
X112990000Y-82170000D01*
X116960000Y-68000000D02*
X116960000Y-78200000D01*
X112990000Y-82170000D02*
X111890000Y-82170000D01*
%TO.N,CAM3_D3*%
X112990000Y-84700000D02*
X111890000Y-84700000D01*
X118230000Y-79460000D02*
X112990000Y-84700000D01*
X118230000Y-66730000D02*
X118230000Y-79460000D01*
X119500000Y-65460000D02*
X118230000Y-66730000D01*
%TO.N,CAM3_D4*%
X119500000Y-80740000D02*
X112990000Y-87250000D01*
X119500000Y-68000000D02*
X119500000Y-80740000D01*
X112990000Y-87250000D02*
X111890000Y-87250000D01*
%TO.N,CAM3_D5*%
X120770000Y-82000000D02*
X112990000Y-89780000D01*
X120770000Y-66730000D02*
X120770000Y-82000000D01*
X122040000Y-65460000D02*
X120770000Y-66730000D01*
X112990000Y-89780000D02*
X111890000Y-89780000D01*
%TO.N,CAM3_D8_SD*%
X122040000Y-68000000D02*
X122040000Y-86100000D01*
X122040000Y-86100000D02*
X125720000Y-89780000D01*
X125720000Y-89780000D02*
X127120000Y-89780000D01*
%TO.N,CAM3_D9_SD*%
X123310000Y-84840000D02*
X125720000Y-87250000D01*
X124580000Y-65460000D02*
X123310000Y-66730000D01*
X125720000Y-87250000D02*
X127120000Y-87250000D01*
X123310000Y-66730000D02*
X123310000Y-84840000D01*
%TO.N,CAM3_D10_SD*%
X124580000Y-83560000D02*
X125720000Y-84700000D01*
X124580000Y-68000000D02*
X124580000Y-83560000D01*
X125720000Y-84700000D02*
X127120000Y-84700000D01*
%TO.N,SYS_5V*%
D27*
X108550000Y-92700000D02*
X108550000Y-94100000D01*
D28*
X102000000Y-112600000D02*
X102400000Y-113000000D01*
X130600000Y-101200000D02*
X123970000Y-107830000D01*
D20*
X110290000Y-61060000D02*
X109750000Y-61600000D01*
D27*
X130200000Y-94500000D02*
X130600000Y-94900000D01*
D28*
X113000000Y-113000000D02*
X113600000Y-112400000D01*
D27*
X108950000Y-94500000D02*
X130200000Y-94500000D01*
D20*
X143610000Y-60300000D02*
X142850000Y-61060000D01*
X142850000Y-61060000D02*
X110290000Y-61060000D01*
X108210000Y-61060000D02*
X108750000Y-61600000D01*
D28*
X123970000Y-107830000D02*
X123970000Y-111900000D01*
D27*
X108550000Y-71300000D02*
X108550000Y-89400000D01*
D20*
X79380000Y-61060000D02*
X108210000Y-61060000D01*
D27*
X109500000Y-70350000D02*
X108550000Y-71300000D01*
D20*
X78920000Y-60600000D02*
X79380000Y-61060000D01*
D28*
X113600000Y-112400000D02*
X123470000Y-112400000D01*
X123470000Y-112400000D02*
X123970000Y-111900000D01*
D27*
X109500000Y-69400000D02*
X109500000Y-70350000D01*
D28*
X102000000Y-108300000D02*
X102000000Y-112600000D01*
D20*
X77610000Y-60600000D02*
X78920000Y-60600000D01*
D27*
X130600000Y-94900000D02*
X130600000Y-101200000D01*
X108550000Y-94100000D02*
X108950000Y-94500000D01*
D28*
X102400000Y-113000000D02*
X113000000Y-113000000D01*
%TO.N,SYNC_MASTER*%
D21*
X139905000Y-90650000D02*
X139905000Y-88650000D01*
X73905000Y-88650000D02*
X73905000Y-90650000D01*
X117905000Y-91050000D02*
X117905000Y-88650000D01*
X97450000Y-91050000D02*
X97450000Y-91400000D01*
X73905000Y-90650000D02*
X74305000Y-91050000D01*
X74305000Y-91050000D02*
X139505000Y-91050000D01*
X95905000Y-91050000D02*
X95905000Y-88650000D01*
X139505000Y-91050000D02*
X139905000Y-90650000D01*
X97450000Y-91400000D02*
X97150000Y-91700000D01*
%TO.N,CAM1_EN*%
X70850000Y-69350000D02*
X70850000Y-69950000D01*
X68750000Y-70050000D02*
X70950000Y-70050000D01*
X68200000Y-68700000D02*
X68200000Y-69500000D01*
X74500000Y-63450000D02*
X112450000Y-63450000D01*
X68200000Y-69500000D02*
X68750000Y-70050000D01*
%TO.N,CAM1_D0*%
X68990000Y-77080000D02*
X67890000Y-77080000D01*
X72960000Y-65460000D02*
X71690000Y-66730000D01*
X71690000Y-74380000D02*
X68990000Y-77080000D01*
X71690000Y-66730000D02*
X71690000Y-74380000D01*
%TO.N,CAM1_D2_STRAP*%
X68990000Y-82170000D02*
X67890000Y-82170000D01*
X72960000Y-72600000D02*
X72700000Y-72860000D01*
X72700000Y-72860000D02*
X72700000Y-74440000D01*
X72700000Y-74440000D02*
X72960000Y-74700000D01*
X72960000Y-74700000D02*
X72960000Y-78200000D01*
X72960000Y-68000000D02*
X72960000Y-72600000D01*
X72960000Y-78200000D02*
X68990000Y-82170000D01*
%TO.N,CAM1_D3*%
X75500000Y-65460000D02*
X74230000Y-66730000D01*
X68990000Y-84700000D02*
X67890000Y-84700000D01*
X74230000Y-79460000D02*
X68990000Y-84700000D01*
X74230000Y-66730000D02*
X74230000Y-79460000D01*
%TO.N,CAM1_D4*%
X75500000Y-80740000D02*
X68990000Y-87250000D01*
X68990000Y-87250000D02*
X67890000Y-87250000D01*
X75500000Y-68000000D02*
X75500000Y-80740000D01*
%TO.N,CAM1_D5*%
X76770000Y-66730000D02*
X76770000Y-82000000D01*
X78040000Y-65460000D02*
X76770000Y-66730000D01*
X68990000Y-89780000D02*
X67890000Y-89780000D01*
X76770000Y-82000000D02*
X68990000Y-89780000D01*
%TO.N,CAM1_D8_SD*%
X78040000Y-68000000D02*
X78040000Y-86100000D01*
X78040000Y-86100000D02*
X81720000Y-89780000D01*
X81720000Y-89780000D02*
X83120000Y-89780000D01*
%TO.N,CAM1_D9_SD*%
X79310000Y-84840000D02*
X81720000Y-87250000D01*
X79310000Y-66730000D02*
X79310000Y-84840000D01*
X81720000Y-87250000D02*
X83120000Y-87250000D01*
X80580000Y-65460000D02*
X79310000Y-66730000D01*
%TO.N,CAM1_D10_SD*%
X80580000Y-68000000D02*
X80580000Y-83560000D01*
X81720000Y-84700000D02*
X83120000Y-84700000D01*
X80580000Y-83560000D02*
X81720000Y-84700000D01*
%TO.N,RTC_INT_N*%
X86800000Y-101050000D02*
X86800000Y-97650000D01*
X89000000Y-106050000D02*
X89000000Y-103250000D01*
X89000000Y-103250000D02*
X86800000Y-101050000D01*
X86800000Y-65950000D02*
X86800000Y-90350000D01*
%TO.N,PD_DISCH*%
X153100000Y-109850000D02*
X153100000Y-109450000D01*
X153100000Y-109450000D02*
X157550000Y-105000000D01*
X160650000Y-105000000D02*
X157550000Y-105000000D01*
X161750000Y-103900000D02*
X160650000Y-105000000D01*
%TO.N,CAM4_EN*%
X133900000Y-64500000D02*
X133900000Y-68900000D01*
X134950000Y-63450000D02*
X133900000Y-64500000D01*
X126150000Y-63450000D02*
X136950000Y-63450000D01*
X133900000Y-68900000D02*
X135700000Y-70700000D01*
%TO.N,CAM4_D0*%
X134990000Y-77080000D02*
X133890000Y-77080000D01*
X138960000Y-65460000D02*
X137690000Y-66730000D01*
X137690000Y-74380000D02*
X134990000Y-77080000D01*
X137690000Y-66730000D02*
X137690000Y-74380000D01*
%TO.N,CAM4_D2_STRAP*%
X138960000Y-78200000D02*
X134990000Y-82170000D01*
X134990000Y-82170000D02*
X133890000Y-82170000D01*
X138960000Y-68000000D02*
X138960000Y-78200000D01*
%TO.N,CAM4_D3*%
X141500000Y-65460000D02*
X140230000Y-66730000D01*
X140230000Y-66730000D02*
X140230000Y-79460000D01*
X140230000Y-79460000D02*
X134990000Y-84700000D01*
X134990000Y-84700000D02*
X133890000Y-84700000D01*
%TO.N,CAM4_D4*%
X141500000Y-80740000D02*
X134990000Y-87250000D01*
X134990000Y-87250000D02*
X133890000Y-87250000D01*
X141500000Y-68000000D02*
X141500000Y-80740000D01*
%TO.N,CAM4_D5*%
X144040000Y-65460000D02*
X142770000Y-66730000D01*
X142770000Y-66730000D02*
X142770000Y-82000000D01*
X134990000Y-89780000D02*
X133890000Y-89780000D01*
X142770000Y-82000000D02*
X134990000Y-89780000D01*
%TO.N,CAM4_D8_SD*%
X147720000Y-89780000D02*
X149120000Y-89780000D01*
X144040000Y-86100000D02*
X147720000Y-89780000D01*
X144040000Y-68000000D02*
X144040000Y-86100000D01*
%TO.N,CAM4_D9_SD*%
X145310000Y-84840000D02*
X147720000Y-87250000D01*
X146580000Y-65460000D02*
X145310000Y-66730000D01*
X145310000Y-66730000D02*
X145310000Y-84840000D01*
X147720000Y-87250000D02*
X149120000Y-87250000D01*
%TO.N,CAM4_D10_SD*%
X147720000Y-84700000D02*
X149120000Y-84700000D01*
X146580000Y-68000000D02*
X146580000Y-83560000D01*
X146580000Y-83560000D02*
X147720000Y-84700000D01*
%TO.N,CAM3_EN*%
X113200000Y-53400000D02*
X113200000Y-60450000D01*
X113850000Y-71850000D02*
X114600000Y-72600000D01*
X113200000Y-64050000D02*
X111600000Y-65650000D01*
X112700000Y-71850000D02*
X113850000Y-71850000D01*
X111600000Y-70750000D02*
X112700000Y-71850000D01*
X111600000Y-65650000D02*
X111600000Y-70750000D01*
%TO.N,COVER_N*%
X88600000Y-54270000D02*
X87600000Y-53270000D01*
X154200000Y-68200000D02*
X154200000Y-72950000D01*
X154200000Y-72950000D02*
X155300000Y-74050000D01*
X87600000Y-53270000D02*
X87600000Y-50850000D01*
%TO.N,CAM2_5V_ISO*%
D24*
X90950000Y-68450000D02*
X90950000Y-70600000D01*
X90950000Y-70600000D02*
X90950000Y-72400000D01*
X90950000Y-72400000D02*
X92350000Y-73800000D01*
%TO.N,P4_5V_ISO*%
D27*
X78750000Y-113750000D02*
X70850000Y-105850000D01*
X99000000Y-113750000D02*
X78750000Y-113750000D01*
X70850000Y-105850000D02*
X62000000Y-105850000D01*
D26*
X99000000Y-112900000D02*
X99000000Y-114400000D01*
%TO.N,P4_5V*%
X55307000Y-67307000D02*
X54013000Y-67307000D01*
X60500000Y-109540000D02*
X61660000Y-110700000D01*
X54012500Y-67307300D02*
X54012500Y-103052500D01*
X54012500Y-103052500D02*
X60500000Y-109540000D01*
X56000000Y-68000000D02*
X55307000Y-67307000D01*
X61660000Y-110700000D02*
X63500000Y-110700000D01*
%TO.N,COVER_RAW*%
D21*
X157250000Y-76300000D02*
X157250000Y-74100000D01*
X155200000Y-78350000D02*
X157250000Y-76300000D01*
%TO.N,SYS_RAW*%
D29*
X106750000Y-95300000D02*
X106750000Y-96800000D01*
X120400000Y-98800000D02*
X120400000Y-97000000D01*
D30*
X113200000Y-97200000D02*
X113200000Y-103700000D01*
X113200000Y-103700000D02*
X112200000Y-104700000D01*
D23*
X82050000Y-107950000D02*
X80450000Y-109550000D01*
D31*
X113200000Y-109200000D02*
X114250000Y-110250000D01*
D30*
X112200000Y-104700000D02*
X112200000Y-105400000D01*
D23*
X80450000Y-109550000D02*
X77900000Y-109550000D01*
D32*
X106750000Y-96800000D02*
X107150000Y-97200000D01*
D30*
X113100000Y-106300000D02*
X113200000Y-106300000D01*
D31*
X113200000Y-106300000D02*
X113200000Y-109200000D01*
D30*
X112200000Y-105400000D02*
X113100000Y-106300000D01*
D32*
X120400000Y-97200000D02*
X107150000Y-97200000D01*
D31*
X114250000Y-110250000D02*
X116800000Y-110250000D01*
%TO.N,IMU_INT*%
D21*
X87400000Y-65300000D02*
X87400000Y-89700000D01*
%TO.N,CHG_VBUS*%
X143500000Y-103000000D02*
X143700000Y-103200000D01*
X143700000Y-103200000D02*
X143700000Y-104600000D01*
X143700000Y-104600000D02*
X143700000Y-110400000D01*
%TO.N,FN_N*%
X151750000Y-50900000D02*
X152750000Y-51900000D01*
X90500000Y-50900000D02*
X151750000Y-50900000D01*
X89900000Y-55580000D02*
X89900000Y-51500000D01*
X89900000Y-51500000D02*
X90500000Y-50900000D01*
X152750000Y-51900000D02*
X152750000Y-59500000D01*
%TO.N,CHG_SW2*%
D25*
X139400000Y-104450000D02*
X139400000Y-105250000D01*
X139400000Y-104450000D02*
X135750000Y-100800000D01*
X135750000Y-96000000D02*
X135750000Y-96800000D01*
X135750000Y-100800000D02*
X135750000Y-96800000D01*
%TO.N,CAM4_SHUNT_OUT*%
D20*
X144430000Y-61000000D02*
X144070000Y-61360000D01*
X110760000Y-61600000D02*
X110750000Y-61600000D01*
X111000000Y-61360000D02*
X110760000Y-61600000D01*
X144070000Y-61360000D02*
X111000000Y-61360000D01*
%TO.N,CAM1_SHUNT_OUT*%
X78570000Y-61360000D02*
X107510000Y-61360000D01*
X107510000Y-61360000D02*
X107750000Y-61600000D01*
X78430000Y-61500000D02*
X78570000Y-61360000D01*
%TO.N,CAM2_FAULT_N*%
D21*
X99260000Y-56875000D02*
X99860000Y-57475000D01*
X95300000Y-58810000D02*
X94950000Y-58460000D01*
X99860000Y-58050000D02*
X99450000Y-58460000D01*
X94950000Y-58460000D02*
X94600000Y-58460000D01*
X99860000Y-57475000D02*
X99860000Y-58050000D01*
X97250000Y-58460000D02*
X96900000Y-58810000D01*
X94600000Y-58460000D02*
X94200000Y-58860000D01*
X94200000Y-58860000D02*
X94200000Y-60260000D01*
X96900000Y-58810000D02*
X95300000Y-58810000D01*
X99450000Y-58460000D02*
X97250000Y-58460000D01*
%TO.N,P4_BUS_EN*%
X68600000Y-103550000D02*
X66780000Y-103550000D01*
X69500000Y-102650000D02*
X68600000Y-103550000D01*
X73500000Y-98400000D02*
X72900000Y-99000000D01*
X81750000Y-92900000D02*
X77900000Y-92900000D01*
X72900000Y-99000000D02*
X71900000Y-99000000D01*
X71350000Y-100800000D02*
X69500000Y-102650000D01*
X73500000Y-97300000D02*
X73500000Y-98400000D01*
X66780000Y-103550000D02*
X66500000Y-103830000D01*
X71900000Y-99000000D02*
X71350000Y-99550000D01*
X77900000Y-92900000D02*
X73500000Y-97300000D01*
X71350000Y-99550000D02*
X71350000Y-100800000D01*
%TO.N,BOOST_ENABLE*%
X113400000Y-105500000D02*
X114900000Y-105500000D01*
X84600000Y-116600000D02*
X99000000Y-116600000D01*
X115600000Y-107500000D02*
X117500000Y-109400000D01*
X117500000Y-110600000D02*
X117100000Y-111000000D01*
X115600000Y-106200000D02*
X115600000Y-107500000D01*
X117500000Y-109400000D02*
X117500000Y-110600000D01*
X114900000Y-105500000D02*
X115600000Y-106200000D01*
X117100000Y-111000000D02*
X110200000Y-111000000D01*
%TO.N,BOOST_COMP*%
X103115684Y-107815684D02*
X103550000Y-108250000D01*
X103115684Y-107249999D02*
X103115684Y-107815684D01*
X104900000Y-105465684D02*
X103115684Y-107249999D01*
X104900000Y-103700000D02*
X104900000Y-105465684D01*
%TO.N,CAM_GLOBAL_EN*%
X57970000Y-60950000D02*
X74000000Y-60950000D01*
X115600000Y-54000000D02*
X118550000Y-54000000D01*
X92500000Y-55375000D02*
X92500000Y-54400000D01*
X57270000Y-76890000D02*
X57270000Y-61650000D01*
X111400000Y-53600000D02*
X112600000Y-52400000D01*
X91000000Y-56875000D02*
X92500000Y-55375000D01*
X92500000Y-54400000D02*
X93300000Y-53600000D01*
X57270000Y-61650000D02*
X57970000Y-60950000D01*
X74000000Y-60950000D02*
X78075000Y-56875000D01*
X56000000Y-78160000D02*
X57270000Y-76890000D01*
X78075000Y-56875000D02*
X91000000Y-56875000D01*
X114000000Y-52400000D02*
X115600000Y-54000000D01*
X112600000Y-52400000D02*
X114000000Y-52400000D01*
X93300000Y-53600000D02*
X111400000Y-53600000D01*
%TO.N,CAM1_FAULT_N*%
X83050000Y-62150000D02*
X90000000Y-62150000D01*
%TO.N,POWER_INT_N*%
X84500000Y-65300000D02*
X84500000Y-89700000D01*
X81250000Y-106000000D02*
X75850000Y-106000000D01*
X84500000Y-95600000D02*
X84500000Y-96950000D01*
X83900000Y-103850000D02*
X83900000Y-97550000D01*
X83300000Y-103950000D02*
X81250000Y-106000000D01*
X84500000Y-96950000D02*
X83900000Y-97550000D01*
%TO.N,CHARGE_CE_N*%
X143050000Y-117300000D02*
X146100000Y-117300000D01*
X141950000Y-109450000D02*
X141950000Y-116200000D01*
X141950000Y-116200000D02*
X143050000Y-117300000D01*
X140250000Y-107750000D02*
X141950000Y-109450000D01*
%TO.N,CAM3_REQ*%
X96100000Y-60450000D02*
X94800000Y-59150000D01*
X102600000Y-58950000D02*
X101100000Y-60450000D01*
X102600000Y-54600000D02*
X102600000Y-58950000D01*
X101100000Y-60450000D02*
X97100000Y-60450000D01*
X97100000Y-60450000D02*
X96100000Y-60450000D01*
%TO.N,CAM3_FAULT_N*%
X93850000Y-62150000D02*
X119000000Y-62150000D01*
%TO.N,CAM4_FAULT_N*%
X93400000Y-62800000D02*
X139800000Y-62800000D01*
%TO.N,P4_SDA*%
X69250000Y-97675000D02*
X68325000Y-96750000D01*
X68325000Y-96750000D02*
X65150000Y-96750000D01*
%TO.N,P4_SCL*%
X67925000Y-98325000D02*
X69750000Y-98325000D01*
X66300000Y-99950000D02*
X67925000Y-98325000D01*
%TO.N,AUX_3V3*%
X93000000Y-106750000D02*
X91300000Y-105050000D01*
X93000000Y-109850000D02*
X93000000Y-106750000D01*
%TO.N,P4_RX4*%
X62600000Y-74900000D02*
X62600000Y-82410000D01*
X65500000Y-72000000D02*
X62600000Y-74900000D01*
X65500000Y-70600000D02*
X65500000Y-72000000D01*
X62600000Y-82410000D02*
X60500000Y-84510000D01*
%TO.N,P4_RX2*%
X68500000Y-75700000D02*
X66900000Y-75700000D01*
X71100000Y-73100000D02*
X68500000Y-75700000D01*
X66900000Y-75700000D02*
X63900000Y-78700000D01*
X63900000Y-78700000D02*
X63300000Y-78700000D01*
%TO.N,P4_TX2*%
X61500000Y-72400000D02*
X61500000Y-71400000D01*
X61500000Y-71400000D02*
X61800000Y-71100000D01*
%TD*%
%TA.AperFunction,Conductor*%
%TO.N,SYS_RAW*%
G36*
X107243039Y-94719685D02*
G01*
X107288794Y-94772489D01*
X107300000Y-94824000D01*
X107300000Y-95750000D01*
X121952671Y-95750000D01*
X122019710Y-95769685D01*
X122065465Y-95822489D01*
X122075409Y-95891647D01*
X122060058Y-95936000D01*
X122033609Y-95981810D01*
X122033609Y-95981811D01*
X121999500Y-96109108D01*
X121999500Y-96240891D01*
X122033608Y-96368187D01*
X122066554Y-96425250D01*
X122099500Y-96482314D01*
X122192686Y-96575500D01*
X122306814Y-96641392D01*
X122434108Y-96675500D01*
X122434110Y-96675500D01*
X122565890Y-96675500D01*
X122565892Y-96675500D01*
X122693186Y-96641392D01*
X122807314Y-96575500D01*
X122900500Y-96482314D01*
X122966392Y-96368186D01*
X123000500Y-96240892D01*
X123000500Y-96109108D01*
X122966392Y-95981814D01*
X122966390Y-95981810D01*
X122939942Y-95936000D01*
X122923469Y-95868100D01*
X122946322Y-95802073D01*
X123001243Y-95758882D01*
X123047329Y-95750000D01*
X124952671Y-95750000D01*
X125019710Y-95769685D01*
X125065465Y-95822489D01*
X125075409Y-95891647D01*
X125060058Y-95936000D01*
X125033609Y-95981810D01*
X125033609Y-95981811D01*
X124999500Y-96109108D01*
X124999500Y-96240891D01*
X125033608Y-96368187D01*
X125066554Y-96425250D01*
X125099500Y-96482314D01*
X125192686Y-96575500D01*
X125306814Y-96641392D01*
X125434108Y-96675500D01*
X125434110Y-96675500D01*
X125565890Y-96675500D01*
X125565892Y-96675500D01*
X125693186Y-96641392D01*
X125807314Y-96575500D01*
X125900500Y-96482314D01*
X125966392Y-96368186D01*
X126000500Y-96240892D01*
X126000500Y-96109108D01*
X125966392Y-95981814D01*
X125966390Y-95981810D01*
X125939942Y-95936000D01*
X125923469Y-95868100D01*
X125946322Y-95802073D01*
X126001243Y-95758882D01*
X126047329Y-95750000D01*
X127952671Y-95750000D01*
X128019710Y-95769685D01*
X128065465Y-95822489D01*
X128075409Y-95891647D01*
X128060058Y-95936000D01*
X128033609Y-95981810D01*
X128033609Y-95981811D01*
X127999500Y-96109108D01*
X127999500Y-96240891D01*
X128033608Y-96368187D01*
X128066554Y-96425250D01*
X128099500Y-96482314D01*
X128192686Y-96575500D01*
X128306814Y-96641392D01*
X128434108Y-96675500D01*
X128434110Y-96675500D01*
X128565890Y-96675500D01*
X128565892Y-96675500D01*
X128693186Y-96641392D01*
X128807314Y-96575500D01*
X128807317Y-96575496D01*
X128813999Y-96571639D01*
X128881899Y-96555166D01*
X128947926Y-96578018D01*
X128991117Y-96632939D01*
X129000000Y-96679026D01*
X129000000Y-100676000D01*
X128980315Y-100743039D01*
X128927511Y-100788794D01*
X128876000Y-100800000D01*
X116924500Y-100800000D01*
X116857461Y-100780315D01*
X116811706Y-100727511D01*
X116800500Y-100676000D01*
X116800500Y-100634110D01*
X116800500Y-100634108D01*
X116766392Y-100506814D01*
X116700500Y-100392686D01*
X116607314Y-100299500D01*
X116550250Y-100266554D01*
X116493187Y-100233608D01*
X116429539Y-100216554D01*
X116365892Y-100199500D01*
X116234108Y-100199500D01*
X116106812Y-100233608D01*
X115992686Y-100299500D01*
X115992683Y-100299502D01*
X115899502Y-100392683D01*
X115899500Y-100392686D01*
X115833608Y-100506812D01*
X115799500Y-100634108D01*
X115799500Y-100676000D01*
X115779815Y-100743039D01*
X115727011Y-100788794D01*
X115675500Y-100800000D01*
X105476333Y-100800000D01*
X105409294Y-100780315D01*
X105388652Y-100763681D01*
X105036319Y-100411348D01*
X105002834Y-100350025D01*
X105000000Y-100323667D01*
X105000000Y-94824000D01*
X105019685Y-94756961D01*
X105072489Y-94711206D01*
X105124000Y-94700000D01*
X107176000Y-94700000D01*
X107243039Y-94719685D01*
G37*
%TD.AperFunction*%
%TD*%
M02*
