M48
; DRILL file KiCad 10.0.6 date 2026-10-03T17:52:18
; FORMAT={-:-/ absolute / metric / decimal}
; #@! TF.CreationDate,2026-10-03T17:52:18+02:00
; #@! TF.GenerationSoftware,Kicad,Pcbnew,10.0.6
; #@! TF.FileFunction,Plated,1,4,PTH
FMAT,2
METRIC
; #@! TA.AperFunction,Plated,PTH,ComponentDrill
T1C0.200
; #@! TA.AperFunction,Plated,PTH,ViaDrill
T2C0.300
; #@! TA.AperFunction,Plated,PTH,ComponentDrill
T3C0.600
; #@! TA.AperFunction,Plated,PTH,ComponentDrill
T4C1.000
; #@! TA.AperFunction,Plated,PTH,ComponentDrill
T5C1.700
%
G90
G05
T1
X93.0Y-103.45
X93.0Y-104.55
X157.525Y-115.25
X158.5Y-114.525
X158.5Y-115.25
X158.5Y-115.975
X159.475Y-115.25
T2
X54.0Y-60.6
X57.625Y-114.85
X58.4Y-57.6
X59.7Y-71.8
X59.7Y-97.24
X59.85Y-76.25
X59.85Y-87.65
X60.5Y-84.51
X60.7Y-71.8
X60.7Y-75.0
X60.9Y-114.85
X61.5Y-70.0
X61.5Y-72.4
X61.5Y-75.0
X61.8Y-71.1
X62.0Y-105.85
X62.0Y-110.7
X62.5Y-63.225
X62.75Y-105.85
X62.75Y-110.7
X63.3Y-78.7
X63.3Y-96.75
X63.35Y-103.0
X63.5Y-105.85
X63.5Y-110.7
X63.9Y-60.0
X64.6Y-70.9
X64.675Y-66.9
X64.675Y-96.0
X64.707Y-68.693
X64.9Y-76.4
X65.0Y-102.75
X65.15Y-96.75
X65.5Y-70.6
X65.612Y-62.05
X66.1Y-82.9
X66.3Y-99.95
X66.4Y-69.4
X66.5Y-103.83
X66.888Y-96.025
X67.15Y-74.8
X67.2Y-62.0
X67.2Y-94.45
X67.45Y-102.2
X67.45Y-104.35
X68.2Y-68.7
X68.7Y-62.35
X68.95Y-69.3
X69.035Y-88.863
X69.205Y-88.125
X69.215Y-85.365
X69.25Y-73.9
X69.25Y-97.675
X69.45Y-61.6
X69.5Y-96.05
X69.75Y-98.325
X69.843Y-88.0
X70.205Y-84.375
X70.51Y-100.185
X70.775Y-95.0
X70.79Y-81.25
X70.85Y-69.35
X71.1Y-73.1
X71.15Y-92.325
X71.405Y-89.3
X72.2Y-100.1
X72.4Y-64.05
X72.75Y-103.2
X72.9Y-96.05
X73.3Y-73.65
X73.5Y-97.3
X73.59Y-69.4
X73.751Y-80.825
X73.905Y-88.65
X74.45Y-95.5
X74.45Y-102.5
X74.5Y-63.45
X74.705Y-86.05
X74.705Y-88.0
X74.73Y-82.9
X74.865Y-69.4
X74.95Y-62.35
X75.05Y-100.1
X75.45Y-97.5
X75.85Y-106.0
X76.0Y-100.3
X76.0Y-103.95
X76.1Y-104.75
X76.45Y-86.35
X76.625Y-116.5
X76.75Y-103.2
X77.0Y-82.65
X77.45Y-99.0
X77.61Y-60.6
X77.62Y-115.55
X77.9Y-109.55
X78.2Y-107.7
X78.43Y-61.5
X78.65Y-83.15
X79.2Y-107.7
X79.3Y-64.4
X79.6Y-86.0
X79.6Y-86.8
X79.6Y-92.3
X79.69Y-100.55
X79.973Y-73.778
X80.35Y-107.85
X80.805Y-87.95
X80.805Y-91.85
X81.15Y-107.75
X81.25Y-77.05
X81.75Y-92.9
X81.852Y-104.035
X81.95Y-68.55
X82.05Y-107.95
X83.05Y-62.15
X83.3Y-103.95
X83.3Y-112.3
X83.4Y-109.45
X83.6Y-67.2
X83.9Y-103.85
X84.05Y-105.025
X84.5Y-65.3
X84.5Y-89.7
X84.5Y-95.6
X84.6Y-106.325
X84.6Y-116.6
X84.75Y-101.45
X85.65Y-93.6
X85.7Y-101.0
X86.2Y-65.3
X86.2Y-89.7
X86.25Y-106.775
X86.8Y-65.95
X86.8Y-90.35
X86.8Y-97.65
X87.25Y-109.55
X87.4Y-65.3
X87.4Y-89.7
X87.4Y-92.8
X87.6Y-50.85
X88.0Y-65.95
X88.0Y-90.35
X88.0Y-98.3
X88.3Y-105.65
X88.35Y-99.95
X88.4Y-107.45
X88.6Y-54.27
X88.6Y-73.6
X88.6Y-83.45
X88.6Y-85.95
X89.0Y-106.05
X89.65Y-102.6
X89.65Y-74.123
X89.7Y-58.17
X89.9Y-55.58
X90.0Y-62.15
X90.3Y-56.23
X90.3Y-57.52
X90.3Y-58.83
X90.5Y-53.625
X90.9Y-54.925
X90.95Y-68.45
X91.035Y-88.863
X91.205Y-88.125
X91.215Y-85.365
X91.25Y-105.85
X91.3Y-102.8
X91.3Y-105.05
X91.4Y-109.0
X91.843Y-88.0
X92.205Y-84.375
X92.25Y-59.5
X92.3Y-100.6
X92.35Y-73.8
X92.5Y-101.75
X92.757Y-102.543
X92.79Y-81.25
X93.0Y-109.85
X93.35Y-55.65
X93.4Y-62.8
X93.405Y-89.3
X93.41Y-91.7
X93.537Y-58.175
X93.65Y-109.35
X93.85Y-62.15
X93.95Y-102.6
X94.0Y-85.35
X94.2Y-60.26
X94.35Y-99.85
X94.8Y-59.15
X94.943Y-84.972
X95.0Y-90.4
X95.0Y-102.5
X95.125Y-109.8
X95.45Y-55.55
X95.45Y-83.65
X95.567Y-72.649
X95.59Y-69.4
X95.905Y-88.65
X96.0Y-93.35
X96.125Y-115.95
X96.35Y-59.6
X96.35Y-106.45
X96.4Y-107.325
X96.6Y-51.675
X96.6Y-56.85
X96.65Y-54.275
X96.65Y-58.175
X96.705Y-86.05
X96.705Y-88.0
X96.73Y-82.9
X96.865Y-69.4
X97.15Y-91.7
X97.95Y-99.15
X98.6Y-86.1
X99.0Y-112.9
X99.0Y-113.65
X99.0Y-114.4
X99.0Y-116.6
X99.05Y-52.7
X99.1Y-55.9
X99.25Y-54.475
X99.25Y-57.85
X99.26Y-56.875
X99.35Y-59.65
X99.4Y-81.925
X100.0Y-59.175
X100.35Y-101.75
X100.65Y-85.3
X101.2Y-54.65
X101.3Y-58.25
X101.6Y-86.8
X101.95Y-105.65
X101.973Y-73.778
X102.0Y-108.3
X102.0Y-109.0
X102.0Y-109.7
X102.6Y-54.6
X102.805Y-87.95
X102.805Y-91.85
X103.4Y-77.75
X103.55Y-108.25
X104.0Y-59.175
X104.0Y-107.2
X104.05Y-60.0
X104.05Y-68.45
X104.175Y-99.0
X104.5Y-109.225
X104.75Y-102.35
X104.83Y-67.39
X104.86Y-66.57
X104.9Y-103.7
X104.9Y-116.25
X104.925Y-108.0
X105.125Y-72.85
X105.25Y-65.2
X105.4Y-95.3
X105.4Y-96.2
X105.4Y-97.1
X105.45Y-57.8
X105.95Y-104.1
X106.1Y-68.42
X106.312Y-116.3
X106.4Y-86.0
X106.575Y-111.8
X106.63Y-103.543
X106.75Y-95.3
X106.75Y-96.2
X106.75Y-97.1
X107.29Y-66.8
X107.338Y-102.95
X107.35Y-51.65
X107.5Y-111.6
X107.75Y-61.6
X107.85Y-89.4
X107.85Y-92.7
X107.86Y-106.75
X107.922Y-60.484
X108.55Y-89.4
X108.55Y-92.7
X108.7Y-114.35
X108.75Y-61.6
X108.75Y-65.5
X108.75Y-102.4
X108.8Y-69.4
X109.25Y-89.4
X109.25Y-92.7
X109.4Y-117.2
X109.5Y-67.75
X109.5Y-69.4
X109.5Y-108.9
X109.5Y-109.775
X109.65Y-55.85
X109.75Y-61.6
X109.912Y-103.0
X110.1Y-82.9
X110.2Y-69.4
X110.2Y-111.0
X110.3Y-67.65
X110.3Y-90.2
X110.6Y-58.75
X110.75Y-61.6
X110.85Y-66.85
X112.3Y-66.57
X112.35Y-107.1
X112.377Y-103.235
X112.45Y-59.9
X112.45Y-63.45
X112.5Y-114.365
X113.035Y-88.863
X113.1Y-67.36
X113.2Y-53.4
X113.2Y-60.45
X113.2Y-64.05
X113.2Y-106.3
X113.205Y-88.125
X113.4Y-105.5
X113.475Y-111.2
X113.842Y-88.0
X114.175Y-108.7
X114.205Y-84.375
X114.6Y-72.6
X114.605Y-73.725
X114.7Y-113.7
X114.79Y-81.25
X114.875Y-108.7
X115.4Y-91.97
X115.405Y-89.3
X116.1Y-55.85
X116.1Y-57.8
X116.3Y-100.7
X116.3Y-106.2
X116.642Y-85.05
X116.75Y-60.4
X116.755Y-84.375
X116.8Y-110.25
X117.125Y-105.25
X117.45Y-83.65
X117.59Y-69.4
X117.6Y-52.5
X117.825Y-105.25
X117.905Y-88.65
X118.15Y-56.45
X118.15Y-57.95
X118.55Y-54.0
X118.705Y-86.05
X118.705Y-88.0
X118.73Y-82.9
X118.85Y-76.2
X118.865Y-69.4
X118.875Y-103.5
X118.875Y-107.0
X119.0Y-55.85
X119.0Y-62.15
X119.35Y-111.35
X119.675Y-101.8
X119.675Y-108.7
X120.1Y-72.65
X120.375Y-101.8
X120.375Y-108.7
X120.4Y-97.0
X120.4Y-97.9
X120.4Y-98.8
X121.2Y-99.5
X121.2Y-100.3
X121.4Y-81.925
X121.575Y-107.0
X121.85Y-58.1
X121.9Y-54.25
X122.0Y-99.5
X122.0Y-100.3
X122.5Y-96.175
X122.625Y-105.25
X122.8Y-99.5
X122.8Y-100.3
X122.8Y-110.25
X123.325Y-105.25
X123.51Y-59.85
X123.6Y-86.0
X123.6Y-86.8
X123.6Y-99.5
X123.6Y-100.3
X123.85Y-91.65
X123.97Y-110.3
X123.97Y-111.1
X123.97Y-111.9
X123.973Y-73.778
X124.0Y-64.0
X124.375Y-103.5
X124.4Y-99.5
X124.805Y-87.95
X124.805Y-91.85
X124.95Y-55.525
X125.175Y-101.8
X125.175Y-108.7
X125.2Y-71.6
X125.2Y-99.5
X125.5Y-96.175
X125.875Y-101.8
X125.875Y-108.7
X126.0Y-99.5
X126.0Y-100.3
X126.15Y-63.45
X126.8Y-65.335
X126.8Y-71.6
X127.2Y-99.5
X127.2Y-100.3
X128.0Y-99.5
X128.0Y-100.3
X128.5Y-96.175
X128.825Y-105.25
X128.95Y-68.55
X130.275Y-103.5
X130.275Y-107.0
X132.1Y-82.9
X132.6Y-96.17
X132.65Y-90.45
X132.75Y-86.05
X133.0Y-106.9
X133.2Y-105.6
X134.1Y-109.7
X134.5Y-96.175
X134.6Y-106.3
X134.6Y-107.0
X134.6Y-107.7
X134.95Y-68.45
X135.205Y-88.125
X135.215Y-85.365
X135.7Y-70.7
X135.75Y-96.0
X135.75Y-96.8
X135.833Y-88.078
X136.0Y-106.65
X136.21Y-84.37
X136.605Y-73.725
X136.7Y-103.15
X136.765Y-71.165
X136.79Y-81.25
X136.95Y-63.45
X137.0Y-106.7
X137.1Y-104.75
X137.405Y-89.3
X137.41Y-91.7
X137.85Y-117.25
X137.85Y-118.45
X138.642Y-85.05
X138.8Y-107.75
X139.4Y-104.45
X139.4Y-105.25
X139.4Y-108.25
X139.45Y-83.65
X139.59Y-69.4
X139.8Y-62.8
X139.905Y-88.65
X140.0Y-101.25
X140.0Y-106.0
X140.25Y-107.75
X140.6Y-104.45
X140.6Y-105.25
X140.675Y-64.25
X140.705Y-86.05
X140.705Y-88.0
X140.73Y-82.9
X140.865Y-69.4
X141.2Y-102.35
X141.25Y-58.775
X142.5Y-114.8
X142.95Y-104.85
X143.4Y-81.925
X143.5Y-103.0
X143.61Y-60.3
X143.7Y-110.4
X144.175Y-57.5
X144.25Y-96.0
X144.25Y-96.8
X144.43Y-61.0
X144.538Y-62.55
X144.65Y-69.55
X145.0Y-105.3
X145.05Y-106.425
X145.252Y-109.702
X145.6Y-86.05
X145.65Y-86.85
X145.963Y-76.55
X146.1Y-117.3
X146.2Y-103.35
X146.5Y-99.925
X146.805Y-87.95
X146.805Y-91.85
X147.0Y-105.8
X147.4Y-70.6
X147.5Y-109.7
X147.6Y-106.5
X148.625Y-57.55
X149.5Y-99.925
X149.65Y-112.625
X150.05Y-116.45
X150.15Y-109.0
X150.15Y-111.302
X150.5Y-59.225
X151.74Y-68.335
X151.983Y-104.258
X152.0Y-69.3
X152.25Y-114.925
X152.3Y-111.375
X152.5Y-71.175
X152.5Y-72.825
X152.55Y-101.35
X152.75Y-59.5
X152.75Y-62.75
X153.06Y-76.24
X153.1Y-109.85
X153.9Y-109.8
X154.2Y-68.2
X155.2Y-78.35
X155.25Y-97.3
X155.3Y-74.05
X155.3Y-92.5
X155.6Y-98.4
X155.6Y-99.3
X155.75Y-115.4
X155.75Y-118.45
X155.95Y-70.2
X156.05Y-113.6
X156.15Y-92.9
X156.25Y-74.05
X156.55Y-100.85
X156.6Y-107.4
X157.2Y-70.6
X157.25Y-73.05
X157.25Y-74.1
X157.3Y-71.7
X157.6Y-107.95
X157.9Y-65.6
X157.9Y-67.5
X158.082Y-117.145
X158.2Y-66.75
X158.6Y-109.8
X158.65Y-73.9
X158.775Y-68.0
X158.9Y-74.975
X159.35Y-108.6
X159.5Y-76.45
X159.55Y-99.375
X160.0Y-68.55
X160.15Y-73.8
X160.2Y-107.6
X160.332Y-117.145
X160.62Y-58.5
X160.657Y-74.543
X160.838Y-65.55
X160.95Y-106.362
X161.0Y-107.6
X161.15Y-100.95
X161.25Y-114.65
X161.4Y-71.25
X161.45Y-72.0
X161.45Y-72.75
X161.45Y-76.45
X161.75Y-97.2
X161.75Y-102.8
X161.75Y-103.9
X161.95Y-68.8
X161.95Y-114.25
X162.0Y-104.85
X162.01Y-115.994
X162.15Y-108.6
X162.425Y-71.125
X162.9Y-96.4
X162.9Y-101.0
X164.0Y-109.0
X164.7Y-109.7
T4
X56.0Y-68.0
X56.0Y-70.54
X56.0Y-73.08
X56.0Y-75.62
X56.0Y-78.16
X56.0Y-80.7
X56.0Y-83.24
X56.0Y-85.78
X56.0Y-88.32
X56.0Y-90.86
X56.0Y-93.4
X56.0Y-95.94
X56.0Y-98.48
X58.54Y-68.0
X58.54Y-70.54
X58.54Y-73.08
X58.54Y-75.62
X58.54Y-78.16
X58.54Y-80.7
X58.54Y-83.24
X58.54Y-85.78
X58.54Y-88.32
X58.54Y-90.86
X58.54Y-93.4
X58.54Y-95.94
X58.54Y-98.48
X67.885Y-77.085
X67.885Y-79.625
X67.885Y-82.165
X67.885Y-84.705
X67.885Y-87.245
X67.885Y-89.785
X67.885Y-92.325
X70.425Y-65.46
X70.425Y-68.0
X72.965Y-65.46
X72.965Y-68.0
X73.75Y-55.0
X75.505Y-65.46
X75.505Y-68.0
X76.29Y-55.0
X78.045Y-65.46
X78.045Y-68.0
X78.83Y-55.0
X80.585Y-65.46
X80.585Y-68.0
X81.37Y-55.0
X83.125Y-77.085
X83.125Y-79.625
X83.125Y-82.165
X83.125Y-84.705
X83.125Y-87.245
X83.125Y-89.785
X83.125Y-92.325
X83.91Y-55.0
X86.45Y-55.0
X89.885Y-77.085
X89.885Y-79.625
X89.885Y-82.165
X89.885Y-84.705
X89.885Y-87.245
X89.885Y-89.785
X89.885Y-92.325
X92.425Y-65.46
X92.425Y-68.0
X94.965Y-65.46
X94.965Y-68.0
X97.505Y-65.46
X97.505Y-68.0
X100.045Y-65.46
X100.045Y-68.0
X102.585Y-65.46
X102.585Y-68.0
X105.125Y-77.085
X105.125Y-79.625
X105.125Y-82.165
X105.125Y-84.705
X105.125Y-87.245
X105.125Y-89.785
X105.125Y-92.325
X111.885Y-77.085
X111.885Y-79.625
X111.885Y-82.165
X111.885Y-84.705
X111.885Y-87.245
X111.885Y-89.785
X111.885Y-92.325
X114.425Y-65.46
X114.425Y-68.0
X116.965Y-65.46
X116.965Y-68.0
X119.505Y-65.46
X119.505Y-68.0
X122.045Y-65.46
X122.045Y-68.0
X124.585Y-65.46
X124.585Y-68.0
X127.125Y-77.085
X127.125Y-79.625
X127.125Y-82.165
X127.125Y-84.705
X127.125Y-87.245
X127.125Y-89.785
X127.125Y-92.325
X133.885Y-77.085
X133.885Y-79.625
X133.885Y-82.165
X133.885Y-84.705
X133.885Y-87.245
X133.885Y-89.785
X133.885Y-92.325
X136.425Y-65.46
X136.425Y-68.0
X138.965Y-65.46
X138.965Y-68.0
X141.505Y-65.46
X141.505Y-68.0
X144.045Y-65.46
X144.045Y-68.0
X146.585Y-65.46
X146.585Y-68.0
X149.125Y-77.085
X149.125Y-79.625
X149.125Y-82.165
X149.125Y-84.705
X149.125Y-87.245
X149.125Y-89.785
X149.125Y-92.325
T5
X136.23Y-113.0
X140.19Y-113.0
X144.15Y-113.0
T3
X154.68Y-111.555G85X154.68Y-112.655
G05
X154.68Y-115.885G85X154.68Y-116.685
G05
X163.32Y-111.555G85X163.32Y-112.655
G05
X163.32Y-115.885G85X163.32Y-116.685
G05
M30
