%TF.GenerationSoftware,KiCad,Pcbnew,10.0.6*%
%TF.CreationDate,2026-10-03T17:52:18+02:00*%
%TF.ProjectId,KINO_D4_Carrier_A0_2,4b494e4f-5f44-4345-9f43-617272696572,rev?*%
%TF.SameCoordinates,Original*%
%TF.FileFunction,Drillmap*%
%TF.FilePolarity,Positive*%
%FSLAX45Y45*%
G04 Gerber Fmt 4.5, Leading zero omitted, Abs format (unit mm)*
G04 Created by KiCad (PCBNEW 10.0.6) date 2026-10-03 17:52:18*
%MOMM*%
%LPD*%
G01*
G04 APERTURE LIST*
%ADD10C,0.050000*%
%ADD11C,0.200000*%
%ADD12C,0.100000*%
%ADD13C,0.220000*%
G04 APERTURE END LIST*
D10*
X5000000Y-5000000D02*
X16701000Y-5000000D01*
X5000000Y-11941000D02*
X5000000Y-5000000D01*
X16701000Y-5000000D02*
X16701000Y-11941000D01*
X16701000Y-11941000D02*
X5000000Y-11941000D01*
D11*
D12*
X15578500Y-11228000D02*
X15643500Y-11293000D01*
X15643500Y-11228000D02*
X15578500Y-11293000D01*
X16156500Y-11228000D02*
X16221500Y-11293000D01*
X16221500Y-11228000D02*
X16156500Y-11293000D01*
D13*
X6935500Y-5730500D02*
G75*
G02*
X6715500Y-5730500I-110000J0D01*
G01*
X6715500Y-5730500D02*
G75*
G02*
X6935500Y-5730500I110000J0D01*
G01*
X6935500Y-11210500D02*
G75*
G02*
X6715500Y-11210500I-110000J0D01*
G01*
X6715500Y-11210500D02*
G75*
G02*
X6935500Y-11210500I110000J0D01*
G01*
X13125500Y-5730500D02*
G75*
G02*
X12905500Y-5730500I-110000J0D01*
G01*
X12905500Y-5730500D02*
G75*
G02*
X13125500Y-5730500I110000J0D01*
G01*
X13125500Y-11210500D02*
G75*
G02*
X12905500Y-11210500I-110000J0D01*
G01*
X12905500Y-11210500D02*
G75*
G02*
X13125500Y-11210500I110000J0D01*
G01*
D11*
X5258277Y-12254984D02*
X5258277Y-12054984D01*
X5258277Y-12054984D02*
X5305896Y-12054984D01*
X5305896Y-12054984D02*
X5334467Y-12064508D01*
X5334467Y-12064508D02*
X5353515Y-12083555D01*
X5353515Y-12083555D02*
X5363039Y-12102603D01*
X5363039Y-12102603D02*
X5372563Y-12140698D01*
X5372563Y-12140698D02*
X5372563Y-12169269D01*
X5372563Y-12169269D02*
X5363039Y-12207365D01*
X5363039Y-12207365D02*
X5353515Y-12226412D01*
X5353515Y-12226412D02*
X5334467Y-12245460D01*
X5334467Y-12245460D02*
X5305896Y-12254984D01*
X5305896Y-12254984D02*
X5258277Y-12254984D01*
X5458277Y-12254984D02*
X5458277Y-12121650D01*
X5458277Y-12159746D02*
X5467801Y-12140698D01*
X5467801Y-12140698D02*
X5477324Y-12131174D01*
X5477324Y-12131174D02*
X5496372Y-12121650D01*
X5496372Y-12121650D02*
X5515420Y-12121650D01*
X5582086Y-12254984D02*
X5582086Y-12121650D01*
X5582086Y-12054984D02*
X5572563Y-12064508D01*
X5572563Y-12064508D02*
X5582086Y-12074031D01*
X5582086Y-12074031D02*
X5591610Y-12064508D01*
X5591610Y-12064508D02*
X5582086Y-12054984D01*
X5582086Y-12054984D02*
X5582086Y-12074031D01*
X5705896Y-12254984D02*
X5686848Y-12245460D01*
X5686848Y-12245460D02*
X5677324Y-12226412D01*
X5677324Y-12226412D02*
X5677324Y-12054984D01*
X5810658Y-12254984D02*
X5791610Y-12245460D01*
X5791610Y-12245460D02*
X5782086Y-12226412D01*
X5782086Y-12226412D02*
X5782086Y-12054984D01*
X6039229Y-12254984D02*
X6039229Y-12054984D01*
X6039229Y-12054984D02*
X6105896Y-12197841D01*
X6105896Y-12197841D02*
X6172562Y-12054984D01*
X6172562Y-12054984D02*
X6172562Y-12254984D01*
X6353515Y-12254984D02*
X6353515Y-12150222D01*
X6353515Y-12150222D02*
X6343991Y-12131174D01*
X6343991Y-12131174D02*
X6324943Y-12121650D01*
X6324943Y-12121650D02*
X6286848Y-12121650D01*
X6286848Y-12121650D02*
X6267801Y-12131174D01*
X6353515Y-12245460D02*
X6334467Y-12254984D01*
X6334467Y-12254984D02*
X6286848Y-12254984D01*
X6286848Y-12254984D02*
X6267801Y-12245460D01*
X6267801Y-12245460D02*
X6258277Y-12226412D01*
X6258277Y-12226412D02*
X6258277Y-12207365D01*
X6258277Y-12207365D02*
X6267801Y-12188317D01*
X6267801Y-12188317D02*
X6286848Y-12178793D01*
X6286848Y-12178793D02*
X6334467Y-12178793D01*
X6334467Y-12178793D02*
X6353515Y-12169269D01*
X6448753Y-12121650D02*
X6448753Y-12321650D01*
X6448753Y-12131174D02*
X6467801Y-12121650D01*
X6467801Y-12121650D02*
X6505896Y-12121650D01*
X6505896Y-12121650D02*
X6524943Y-12131174D01*
X6524943Y-12131174D02*
X6534467Y-12140698D01*
X6534467Y-12140698D02*
X6543991Y-12159746D01*
X6543991Y-12159746D02*
X6543991Y-12216888D01*
X6543991Y-12216888D02*
X6534467Y-12235936D01*
X6534467Y-12235936D02*
X6524943Y-12245460D01*
X6524943Y-12245460D02*
X6505896Y-12254984D01*
X6505896Y-12254984D02*
X6467801Y-12254984D01*
X6467801Y-12254984D02*
X6448753Y-12245460D01*
X6629705Y-12235936D02*
X6639229Y-12245460D01*
X6639229Y-12245460D02*
X6629705Y-12254984D01*
X6629705Y-12254984D02*
X6620182Y-12245460D01*
X6620182Y-12245460D02*
X6629705Y-12235936D01*
X6629705Y-12235936D02*
X6629705Y-12254984D01*
X6629705Y-12131174D02*
X6639229Y-12140698D01*
X6639229Y-12140698D02*
X6629705Y-12150222D01*
X6629705Y-12150222D02*
X6620182Y-12140698D01*
X6620182Y-12140698D02*
X6629705Y-12131174D01*
X6629705Y-12131174D02*
X6629705Y-12150222D01*
D12*
X4932500Y-12551000D02*
X4997500Y-12616000D01*
X4997500Y-12551000D02*
X4932500Y-12616000D01*
D11*
X5296372Y-12474984D02*
X5315420Y-12474984D01*
X5315420Y-12474984D02*
X5334467Y-12484508D01*
X5334467Y-12484508D02*
X5343991Y-12494031D01*
X5343991Y-12494031D02*
X5353515Y-12513079D01*
X5353515Y-12513079D02*
X5363039Y-12551174D01*
X5363039Y-12551174D02*
X5363039Y-12598793D01*
X5363039Y-12598793D02*
X5353515Y-12636888D01*
X5353515Y-12636888D02*
X5343991Y-12655936D01*
X5343991Y-12655936D02*
X5334467Y-12665460D01*
X5334467Y-12665460D02*
X5315420Y-12674984D01*
X5315420Y-12674984D02*
X5296372Y-12674984D01*
X5296372Y-12674984D02*
X5277324Y-12665460D01*
X5277324Y-12665460D02*
X5267801Y-12655936D01*
X5267801Y-12655936D02*
X5258277Y-12636888D01*
X5258277Y-12636888D02*
X5248753Y-12598793D01*
X5248753Y-12598793D02*
X5248753Y-12551174D01*
X5248753Y-12551174D02*
X5258277Y-12513079D01*
X5258277Y-12513079D02*
X5267801Y-12494031D01*
X5267801Y-12494031D02*
X5277324Y-12484508D01*
X5277324Y-12484508D02*
X5296372Y-12474984D01*
X5448753Y-12655936D02*
X5458277Y-12665460D01*
X5458277Y-12665460D02*
X5448753Y-12674984D01*
X5448753Y-12674984D02*
X5439229Y-12665460D01*
X5439229Y-12665460D02*
X5448753Y-12655936D01*
X5448753Y-12655936D02*
X5448753Y-12674984D01*
X5629705Y-12474984D02*
X5591610Y-12474984D01*
X5591610Y-12474984D02*
X5572563Y-12484508D01*
X5572563Y-12484508D02*
X5563039Y-12494031D01*
X5563039Y-12494031D02*
X5543991Y-12522603D01*
X5543991Y-12522603D02*
X5534467Y-12560698D01*
X5534467Y-12560698D02*
X5534467Y-12636888D01*
X5534467Y-12636888D02*
X5543991Y-12655936D01*
X5543991Y-12655936D02*
X5553515Y-12665460D01*
X5553515Y-12665460D02*
X5572563Y-12674984D01*
X5572563Y-12674984D02*
X5610658Y-12674984D01*
X5610658Y-12674984D02*
X5629705Y-12665460D01*
X5629705Y-12665460D02*
X5639229Y-12655936D01*
X5639229Y-12655936D02*
X5648753Y-12636888D01*
X5648753Y-12636888D02*
X5648753Y-12589269D01*
X5648753Y-12589269D02*
X5639229Y-12570222D01*
X5639229Y-12570222D02*
X5629705Y-12560698D01*
X5629705Y-12560698D02*
X5610658Y-12551174D01*
X5610658Y-12551174D02*
X5572563Y-12551174D01*
X5572563Y-12551174D02*
X5553515Y-12560698D01*
X5553515Y-12560698D02*
X5543991Y-12570222D01*
X5543991Y-12570222D02*
X5534467Y-12589269D01*
X5829705Y-12474984D02*
X5734467Y-12474984D01*
X5734467Y-12474984D02*
X5724943Y-12570222D01*
X5724943Y-12570222D02*
X5734467Y-12560698D01*
X5734467Y-12560698D02*
X5753515Y-12551174D01*
X5753515Y-12551174D02*
X5801134Y-12551174D01*
X5801134Y-12551174D02*
X5820182Y-12560698D01*
X5820182Y-12560698D02*
X5829705Y-12570222D01*
X5829705Y-12570222D02*
X5839229Y-12589269D01*
X5839229Y-12589269D02*
X5839229Y-12636888D01*
X5839229Y-12636888D02*
X5829705Y-12655936D01*
X5829705Y-12655936D02*
X5820182Y-12665460D01*
X5820182Y-12665460D02*
X5801134Y-12674984D01*
X5801134Y-12674984D02*
X5753515Y-12674984D01*
X5753515Y-12674984D02*
X5734467Y-12665460D01*
X5734467Y-12665460D02*
X5724943Y-12655936D01*
X5963039Y-12474984D02*
X5982086Y-12474984D01*
X5982086Y-12474984D02*
X6001134Y-12484508D01*
X6001134Y-12484508D02*
X6010658Y-12494031D01*
X6010658Y-12494031D02*
X6020182Y-12513079D01*
X6020182Y-12513079D02*
X6029705Y-12551174D01*
X6029705Y-12551174D02*
X6029705Y-12598793D01*
X6029705Y-12598793D02*
X6020182Y-12636888D01*
X6020182Y-12636888D02*
X6010658Y-12655936D01*
X6010658Y-12655936D02*
X6001134Y-12665460D01*
X6001134Y-12665460D02*
X5982086Y-12674984D01*
X5982086Y-12674984D02*
X5963039Y-12674984D01*
X5963039Y-12674984D02*
X5943991Y-12665460D01*
X5943991Y-12665460D02*
X5934467Y-12655936D01*
X5934467Y-12655936D02*
X5924943Y-12636888D01*
X5924943Y-12636888D02*
X5915420Y-12598793D01*
X5915420Y-12598793D02*
X5915420Y-12551174D01*
X5915420Y-12551174D02*
X5924943Y-12513079D01*
X5924943Y-12513079D02*
X5934467Y-12494031D01*
X5934467Y-12494031D02*
X5943991Y-12484508D01*
X5943991Y-12484508D02*
X5963039Y-12474984D01*
X6115420Y-12674984D02*
X6115420Y-12541650D01*
X6115420Y-12560698D02*
X6124943Y-12551174D01*
X6124943Y-12551174D02*
X6143991Y-12541650D01*
X6143991Y-12541650D02*
X6172563Y-12541650D01*
X6172563Y-12541650D02*
X6191610Y-12551174D01*
X6191610Y-12551174D02*
X6201134Y-12570222D01*
X6201134Y-12570222D02*
X6201134Y-12674984D01*
X6201134Y-12570222D02*
X6210658Y-12551174D01*
X6210658Y-12551174D02*
X6229705Y-12541650D01*
X6229705Y-12541650D02*
X6258277Y-12541650D01*
X6258277Y-12541650D02*
X6277324Y-12551174D01*
X6277324Y-12551174D02*
X6286848Y-12570222D01*
X6286848Y-12570222D02*
X6286848Y-12674984D01*
X6382086Y-12674984D02*
X6382086Y-12541650D01*
X6382086Y-12560698D02*
X6391610Y-12551174D01*
X6391610Y-12551174D02*
X6410658Y-12541650D01*
X6410658Y-12541650D02*
X6439229Y-12541650D01*
X6439229Y-12541650D02*
X6458277Y-12551174D01*
X6458277Y-12551174D02*
X6467801Y-12570222D01*
X6467801Y-12570222D02*
X6467801Y-12674984D01*
X6467801Y-12570222D02*
X6477324Y-12551174D01*
X6477324Y-12551174D02*
X6496372Y-12541650D01*
X6496372Y-12541650D02*
X6524943Y-12541650D01*
X6524943Y-12541650D02*
X6543991Y-12551174D01*
X6543991Y-12551174D02*
X6553515Y-12570222D01*
X6553515Y-12570222D02*
X6553515Y-12674984D01*
X6943991Y-12465460D02*
X6772563Y-12722603D01*
X7201134Y-12474984D02*
X7220182Y-12474984D01*
X7220182Y-12474984D02*
X7239229Y-12484508D01*
X7239229Y-12484508D02*
X7248753Y-12494031D01*
X7248753Y-12494031D02*
X7258277Y-12513079D01*
X7258277Y-12513079D02*
X7267801Y-12551174D01*
X7267801Y-12551174D02*
X7267801Y-12598793D01*
X7267801Y-12598793D02*
X7258277Y-12636888D01*
X7258277Y-12636888D02*
X7248753Y-12655936D01*
X7248753Y-12655936D02*
X7239229Y-12665460D01*
X7239229Y-12665460D02*
X7220182Y-12674984D01*
X7220182Y-12674984D02*
X7201134Y-12674984D01*
X7201134Y-12674984D02*
X7182086Y-12665460D01*
X7182086Y-12665460D02*
X7172563Y-12655936D01*
X7172563Y-12655936D02*
X7163039Y-12636888D01*
X7163039Y-12636888D02*
X7153515Y-12598793D01*
X7153515Y-12598793D02*
X7153515Y-12551174D01*
X7153515Y-12551174D02*
X7163039Y-12513079D01*
X7163039Y-12513079D02*
X7172563Y-12494031D01*
X7172563Y-12494031D02*
X7182086Y-12484508D01*
X7182086Y-12484508D02*
X7201134Y-12474984D01*
X7353515Y-12655936D02*
X7363039Y-12665460D01*
X7363039Y-12665460D02*
X7353515Y-12674984D01*
X7353515Y-12674984D02*
X7343991Y-12665460D01*
X7343991Y-12665460D02*
X7353515Y-12655936D01*
X7353515Y-12655936D02*
X7353515Y-12674984D01*
X7486848Y-12474984D02*
X7505896Y-12474984D01*
X7505896Y-12474984D02*
X7524944Y-12484508D01*
X7524944Y-12484508D02*
X7534467Y-12494031D01*
X7534467Y-12494031D02*
X7543991Y-12513079D01*
X7543991Y-12513079D02*
X7553515Y-12551174D01*
X7553515Y-12551174D02*
X7553515Y-12598793D01*
X7553515Y-12598793D02*
X7543991Y-12636888D01*
X7543991Y-12636888D02*
X7534467Y-12655936D01*
X7534467Y-12655936D02*
X7524944Y-12665460D01*
X7524944Y-12665460D02*
X7505896Y-12674984D01*
X7505896Y-12674984D02*
X7486848Y-12674984D01*
X7486848Y-12674984D02*
X7467801Y-12665460D01*
X7467801Y-12665460D02*
X7458277Y-12655936D01*
X7458277Y-12655936D02*
X7448753Y-12636888D01*
X7448753Y-12636888D02*
X7439229Y-12598793D01*
X7439229Y-12598793D02*
X7439229Y-12551174D01*
X7439229Y-12551174D02*
X7448753Y-12513079D01*
X7448753Y-12513079D02*
X7458277Y-12494031D01*
X7458277Y-12494031D02*
X7467801Y-12484508D01*
X7467801Y-12484508D02*
X7486848Y-12474984D01*
X7629706Y-12494031D02*
X7639229Y-12484508D01*
X7639229Y-12484508D02*
X7658277Y-12474984D01*
X7658277Y-12474984D02*
X7705896Y-12474984D01*
X7705896Y-12474984D02*
X7724944Y-12484508D01*
X7724944Y-12484508D02*
X7734467Y-12494031D01*
X7734467Y-12494031D02*
X7743991Y-12513079D01*
X7743991Y-12513079D02*
X7743991Y-12532127D01*
X7743991Y-12532127D02*
X7734467Y-12560698D01*
X7734467Y-12560698D02*
X7620182Y-12674984D01*
X7620182Y-12674984D02*
X7743991Y-12674984D01*
X7924944Y-12474984D02*
X7829706Y-12474984D01*
X7829706Y-12474984D02*
X7820182Y-12570222D01*
X7820182Y-12570222D02*
X7829706Y-12560698D01*
X7829706Y-12560698D02*
X7848753Y-12551174D01*
X7848753Y-12551174D02*
X7896372Y-12551174D01*
X7896372Y-12551174D02*
X7915420Y-12560698D01*
X7915420Y-12560698D02*
X7924944Y-12570222D01*
X7924944Y-12570222D02*
X7934467Y-12589269D01*
X7934467Y-12589269D02*
X7934467Y-12636888D01*
X7934467Y-12636888D02*
X7924944Y-12655936D01*
X7924944Y-12655936D02*
X7915420Y-12665460D01*
X7915420Y-12665460D02*
X7896372Y-12674984D01*
X7896372Y-12674984D02*
X7848753Y-12674984D01*
X7848753Y-12674984D02*
X7829706Y-12665460D01*
X7829706Y-12665460D02*
X7820182Y-12655936D01*
X8105896Y-12474984D02*
X8067801Y-12474984D01*
X8067801Y-12474984D02*
X8048753Y-12484508D01*
X8048753Y-12484508D02*
X8039229Y-12494031D01*
X8039229Y-12494031D02*
X8020182Y-12522603D01*
X8020182Y-12522603D02*
X8010658Y-12560698D01*
X8010658Y-12560698D02*
X8010658Y-12636888D01*
X8010658Y-12636888D02*
X8020182Y-12655936D01*
X8020182Y-12655936D02*
X8029706Y-12665460D01*
X8029706Y-12665460D02*
X8048753Y-12674984D01*
X8048753Y-12674984D02*
X8086848Y-12674984D01*
X8086848Y-12674984D02*
X8105896Y-12665460D01*
X8105896Y-12665460D02*
X8115420Y-12655936D01*
X8115420Y-12655936D02*
X8124944Y-12636888D01*
X8124944Y-12636888D02*
X8124944Y-12589269D01*
X8124944Y-12589269D02*
X8115420Y-12570222D01*
X8115420Y-12570222D02*
X8105896Y-12560698D01*
X8105896Y-12560698D02*
X8086848Y-12551174D01*
X8086848Y-12551174D02*
X8048753Y-12551174D01*
X8048753Y-12551174D02*
X8029706Y-12560698D01*
X8029706Y-12560698D02*
X8020182Y-12570222D01*
X8020182Y-12570222D02*
X8010658Y-12589269D01*
X8201134Y-12474984D02*
X8201134Y-12513079D01*
X8277325Y-12474984D02*
X8277325Y-12513079D01*
X8572563Y-12751174D02*
X8563039Y-12741650D01*
X8563039Y-12741650D02*
X8543991Y-12713079D01*
X8543991Y-12713079D02*
X8534468Y-12694031D01*
X8534468Y-12694031D02*
X8524944Y-12665460D01*
X8524944Y-12665460D02*
X8515420Y-12617841D01*
X8515420Y-12617841D02*
X8515420Y-12579746D01*
X8515420Y-12579746D02*
X8524944Y-12532127D01*
X8524944Y-12532127D02*
X8534468Y-12503555D01*
X8534468Y-12503555D02*
X8543991Y-12484508D01*
X8543991Y-12484508D02*
X8563039Y-12455936D01*
X8563039Y-12455936D02*
X8572563Y-12446412D01*
X8639230Y-12494031D02*
X8648753Y-12484508D01*
X8648753Y-12484508D02*
X8667801Y-12474984D01*
X8667801Y-12474984D02*
X8715420Y-12474984D01*
X8715420Y-12474984D02*
X8734468Y-12484508D01*
X8734468Y-12484508D02*
X8743991Y-12494031D01*
X8743991Y-12494031D02*
X8753515Y-12513079D01*
X8753515Y-12513079D02*
X8753515Y-12532127D01*
X8753515Y-12532127D02*
X8743991Y-12560698D01*
X8743991Y-12560698D02*
X8629706Y-12674984D01*
X8629706Y-12674984D02*
X8753515Y-12674984D01*
X8991611Y-12674984D02*
X8991611Y-12474984D01*
X9077325Y-12674984D02*
X9077325Y-12570222D01*
X9077325Y-12570222D02*
X9067801Y-12551174D01*
X9067801Y-12551174D02*
X9048753Y-12541650D01*
X9048753Y-12541650D02*
X9020182Y-12541650D01*
X9020182Y-12541650D02*
X9001134Y-12551174D01*
X9001134Y-12551174D02*
X8991611Y-12560698D01*
X9201134Y-12674984D02*
X9182087Y-12665460D01*
X9182087Y-12665460D02*
X9172563Y-12655936D01*
X9172563Y-12655936D02*
X9163039Y-12636888D01*
X9163039Y-12636888D02*
X9163039Y-12579746D01*
X9163039Y-12579746D02*
X9172563Y-12560698D01*
X9172563Y-12560698D02*
X9182087Y-12551174D01*
X9182087Y-12551174D02*
X9201134Y-12541650D01*
X9201134Y-12541650D02*
X9229706Y-12541650D01*
X9229706Y-12541650D02*
X9248753Y-12551174D01*
X9248753Y-12551174D02*
X9258277Y-12560698D01*
X9258277Y-12560698D02*
X9267801Y-12579746D01*
X9267801Y-12579746D02*
X9267801Y-12636888D01*
X9267801Y-12636888D02*
X9258277Y-12655936D01*
X9258277Y-12655936D02*
X9248753Y-12665460D01*
X9248753Y-12665460D02*
X9229706Y-12674984D01*
X9229706Y-12674984D02*
X9201134Y-12674984D01*
X9382087Y-12674984D02*
X9363039Y-12665460D01*
X9363039Y-12665460D02*
X9353515Y-12646412D01*
X9353515Y-12646412D02*
X9353515Y-12474984D01*
X9534468Y-12665460D02*
X9515420Y-12674984D01*
X9515420Y-12674984D02*
X9477325Y-12674984D01*
X9477325Y-12674984D02*
X9458277Y-12665460D01*
X9458277Y-12665460D02*
X9448753Y-12646412D01*
X9448753Y-12646412D02*
X9448753Y-12570222D01*
X9448753Y-12570222D02*
X9458277Y-12551174D01*
X9458277Y-12551174D02*
X9477325Y-12541650D01*
X9477325Y-12541650D02*
X9515420Y-12541650D01*
X9515420Y-12541650D02*
X9534468Y-12551174D01*
X9534468Y-12551174D02*
X9543992Y-12570222D01*
X9543992Y-12570222D02*
X9543992Y-12589269D01*
X9543992Y-12589269D02*
X9448753Y-12608317D01*
X9620182Y-12665460D02*
X9639230Y-12674984D01*
X9639230Y-12674984D02*
X9677325Y-12674984D01*
X9677325Y-12674984D02*
X9696373Y-12665460D01*
X9696373Y-12665460D02*
X9705896Y-12646412D01*
X9705896Y-12646412D02*
X9705896Y-12636888D01*
X9705896Y-12636888D02*
X9696373Y-12617841D01*
X9696373Y-12617841D02*
X9677325Y-12608317D01*
X9677325Y-12608317D02*
X9648753Y-12608317D01*
X9648753Y-12608317D02*
X9629706Y-12598793D01*
X9629706Y-12598793D02*
X9620182Y-12579746D01*
X9620182Y-12579746D02*
X9620182Y-12570222D01*
X9620182Y-12570222D02*
X9629706Y-12551174D01*
X9629706Y-12551174D02*
X9648753Y-12541650D01*
X9648753Y-12541650D02*
X9677325Y-12541650D01*
X9677325Y-12541650D02*
X9696373Y-12551174D01*
X9772563Y-12751174D02*
X9782087Y-12741650D01*
X9782087Y-12741650D02*
X9801134Y-12713079D01*
X9801134Y-12713079D02*
X9810658Y-12694031D01*
X9810658Y-12694031D02*
X9820182Y-12665460D01*
X9820182Y-12665460D02*
X9829706Y-12617841D01*
X9829706Y-12617841D02*
X9829706Y-12579746D01*
X9829706Y-12579746D02*
X9820182Y-12532127D01*
X9820182Y-12532127D02*
X9810658Y-12503555D01*
X9810658Y-12503555D02*
X9801134Y-12484508D01*
X9801134Y-12484508D02*
X9782087Y-12455936D01*
X9782087Y-12455936D02*
X9772563Y-12446412D01*
X10134468Y-12751174D02*
X10124944Y-12741650D01*
X10124944Y-12741650D02*
X10105896Y-12713079D01*
X10105896Y-12713079D02*
X10096373Y-12694031D01*
X10096373Y-12694031D02*
X10086849Y-12665460D01*
X10086849Y-12665460D02*
X10077325Y-12617841D01*
X10077325Y-12617841D02*
X10077325Y-12579746D01*
X10077325Y-12579746D02*
X10086849Y-12532127D01*
X10086849Y-12532127D02*
X10096373Y-12503555D01*
X10096373Y-12503555D02*
X10105896Y-12484508D01*
X10105896Y-12484508D02*
X10124944Y-12455936D01*
X10124944Y-12455936D02*
X10134468Y-12446412D01*
X10210658Y-12541650D02*
X10210658Y-12674984D01*
X10210658Y-12560698D02*
X10220182Y-12551174D01*
X10220182Y-12551174D02*
X10239230Y-12541650D01*
X10239230Y-12541650D02*
X10267801Y-12541650D01*
X10267801Y-12541650D02*
X10286849Y-12551174D01*
X10286849Y-12551174D02*
X10296373Y-12570222D01*
X10296373Y-12570222D02*
X10296373Y-12674984D01*
X10420182Y-12674984D02*
X10401134Y-12665460D01*
X10401134Y-12665460D02*
X10391611Y-12655936D01*
X10391611Y-12655936D02*
X10382087Y-12636888D01*
X10382087Y-12636888D02*
X10382087Y-12579746D01*
X10382087Y-12579746D02*
X10391611Y-12560698D01*
X10391611Y-12560698D02*
X10401134Y-12551174D01*
X10401134Y-12551174D02*
X10420182Y-12541650D01*
X10420182Y-12541650D02*
X10448754Y-12541650D01*
X10448754Y-12541650D02*
X10467801Y-12551174D01*
X10467801Y-12551174D02*
X10477325Y-12560698D01*
X10477325Y-12560698D02*
X10486849Y-12579746D01*
X10486849Y-12579746D02*
X10486849Y-12636888D01*
X10486849Y-12636888D02*
X10477325Y-12655936D01*
X10477325Y-12655936D02*
X10467801Y-12665460D01*
X10467801Y-12665460D02*
X10448754Y-12674984D01*
X10448754Y-12674984D02*
X10420182Y-12674984D01*
X10543992Y-12541650D02*
X10620182Y-12541650D01*
X10572563Y-12474984D02*
X10572563Y-12646412D01*
X10572563Y-12646412D02*
X10582087Y-12665460D01*
X10582087Y-12665460D02*
X10601134Y-12674984D01*
X10601134Y-12674984D02*
X10620182Y-12674984D01*
X10839230Y-12541650D02*
X10839230Y-12741650D01*
X10839230Y-12551174D02*
X10858277Y-12541650D01*
X10858277Y-12541650D02*
X10896373Y-12541650D01*
X10896373Y-12541650D02*
X10915420Y-12551174D01*
X10915420Y-12551174D02*
X10924944Y-12560698D01*
X10924944Y-12560698D02*
X10934468Y-12579746D01*
X10934468Y-12579746D02*
X10934468Y-12636888D01*
X10934468Y-12636888D02*
X10924944Y-12655936D01*
X10924944Y-12655936D02*
X10915420Y-12665460D01*
X10915420Y-12665460D02*
X10896373Y-12674984D01*
X10896373Y-12674984D02*
X10858277Y-12674984D01*
X10858277Y-12674984D02*
X10839230Y-12665460D01*
X11048754Y-12674984D02*
X11029706Y-12665460D01*
X11029706Y-12665460D02*
X11020182Y-12646412D01*
X11020182Y-12646412D02*
X11020182Y-12474984D01*
X11210658Y-12674984D02*
X11210658Y-12570222D01*
X11210658Y-12570222D02*
X11201134Y-12551174D01*
X11201134Y-12551174D02*
X11182087Y-12541650D01*
X11182087Y-12541650D02*
X11143992Y-12541650D01*
X11143992Y-12541650D02*
X11124944Y-12551174D01*
X11210658Y-12665460D02*
X11191611Y-12674984D01*
X11191611Y-12674984D02*
X11143992Y-12674984D01*
X11143992Y-12674984D02*
X11124944Y-12665460D01*
X11124944Y-12665460D02*
X11115420Y-12646412D01*
X11115420Y-12646412D02*
X11115420Y-12627365D01*
X11115420Y-12627365D02*
X11124944Y-12608317D01*
X11124944Y-12608317D02*
X11143992Y-12598793D01*
X11143992Y-12598793D02*
X11191611Y-12598793D01*
X11191611Y-12598793D02*
X11210658Y-12589269D01*
X11277325Y-12541650D02*
X11353515Y-12541650D01*
X11305896Y-12474984D02*
X11305896Y-12646412D01*
X11305896Y-12646412D02*
X11315420Y-12665460D01*
X11315420Y-12665460D02*
X11334468Y-12674984D01*
X11334468Y-12674984D02*
X11353515Y-12674984D01*
X11496373Y-12665460D02*
X11477325Y-12674984D01*
X11477325Y-12674984D02*
X11439230Y-12674984D01*
X11439230Y-12674984D02*
X11420182Y-12665460D01*
X11420182Y-12665460D02*
X11410658Y-12646412D01*
X11410658Y-12646412D02*
X11410658Y-12570222D01*
X11410658Y-12570222D02*
X11420182Y-12551174D01*
X11420182Y-12551174D02*
X11439230Y-12541650D01*
X11439230Y-12541650D02*
X11477325Y-12541650D01*
X11477325Y-12541650D02*
X11496373Y-12551174D01*
X11496373Y-12551174D02*
X11505896Y-12570222D01*
X11505896Y-12570222D02*
X11505896Y-12589269D01*
X11505896Y-12589269D02*
X11410658Y-12608317D01*
X11677325Y-12674984D02*
X11677325Y-12474984D01*
X11677325Y-12665460D02*
X11658277Y-12674984D01*
X11658277Y-12674984D02*
X11620182Y-12674984D01*
X11620182Y-12674984D02*
X11601134Y-12665460D01*
X11601134Y-12665460D02*
X11591611Y-12655936D01*
X11591611Y-12655936D02*
X11582087Y-12636888D01*
X11582087Y-12636888D02*
X11582087Y-12579746D01*
X11582087Y-12579746D02*
X11591611Y-12560698D01*
X11591611Y-12560698D02*
X11601134Y-12551174D01*
X11601134Y-12551174D02*
X11620182Y-12541650D01*
X11620182Y-12541650D02*
X11658277Y-12541650D01*
X11658277Y-12541650D02*
X11677325Y-12551174D01*
X11753515Y-12751174D02*
X11763039Y-12741650D01*
X11763039Y-12741650D02*
X11782087Y-12713079D01*
X11782087Y-12713079D02*
X11791611Y-12694031D01*
X11791611Y-12694031D02*
X11801134Y-12665460D01*
X11801134Y-12665460D02*
X11810658Y-12617841D01*
X11810658Y-12617841D02*
X11810658Y-12579746D01*
X11810658Y-12579746D02*
X11801134Y-12532127D01*
X11801134Y-12532127D02*
X11791611Y-12503555D01*
X11791611Y-12503555D02*
X11782087Y-12484508D01*
X11782087Y-12484508D02*
X11763039Y-12455936D01*
X11763039Y-12455936D02*
X11753515Y-12446412D01*
X4997500Y-12847500D02*
G75*
G02*
X4797500Y-12847500I-100000J0D01*
G01*
X4797500Y-12847500D02*
G75*
G02*
X4997500Y-12847500I100000J0D01*
G01*
X5248753Y-12758031D02*
X5258277Y-12748508D01*
X5258277Y-12748508D02*
X5277324Y-12738984D01*
X5277324Y-12738984D02*
X5324944Y-12738984D01*
X5324944Y-12738984D02*
X5343991Y-12748508D01*
X5343991Y-12748508D02*
X5353515Y-12758031D01*
X5353515Y-12758031D02*
X5363039Y-12777079D01*
X5363039Y-12777079D02*
X5363039Y-12796127D01*
X5363039Y-12796127D02*
X5353515Y-12824698D01*
X5353515Y-12824698D02*
X5239229Y-12938984D01*
X5239229Y-12938984D02*
X5363039Y-12938984D01*
X5448753Y-12919936D02*
X5458277Y-12929460D01*
X5458277Y-12929460D02*
X5448753Y-12938984D01*
X5448753Y-12938984D02*
X5439229Y-12929460D01*
X5439229Y-12929460D02*
X5448753Y-12919936D01*
X5448753Y-12919936D02*
X5448753Y-12938984D01*
X5534467Y-12758031D02*
X5543991Y-12748508D01*
X5543991Y-12748508D02*
X5563039Y-12738984D01*
X5563039Y-12738984D02*
X5610658Y-12738984D01*
X5610658Y-12738984D02*
X5629705Y-12748508D01*
X5629705Y-12748508D02*
X5639229Y-12758031D01*
X5639229Y-12758031D02*
X5648753Y-12777079D01*
X5648753Y-12777079D02*
X5648753Y-12796127D01*
X5648753Y-12796127D02*
X5639229Y-12824698D01*
X5639229Y-12824698D02*
X5524944Y-12938984D01*
X5524944Y-12938984D02*
X5648753Y-12938984D01*
X5772562Y-12738984D02*
X5791610Y-12738984D01*
X5791610Y-12738984D02*
X5810658Y-12748508D01*
X5810658Y-12748508D02*
X5820182Y-12758031D01*
X5820182Y-12758031D02*
X5829705Y-12777079D01*
X5829705Y-12777079D02*
X5839229Y-12815174D01*
X5839229Y-12815174D02*
X5839229Y-12862793D01*
X5839229Y-12862793D02*
X5829705Y-12900888D01*
X5829705Y-12900888D02*
X5820182Y-12919936D01*
X5820182Y-12919936D02*
X5810658Y-12929460D01*
X5810658Y-12929460D02*
X5791610Y-12938984D01*
X5791610Y-12938984D02*
X5772562Y-12938984D01*
X5772562Y-12938984D02*
X5753515Y-12929460D01*
X5753515Y-12929460D02*
X5743991Y-12919936D01*
X5743991Y-12919936D02*
X5734467Y-12900888D01*
X5734467Y-12900888D02*
X5724943Y-12862793D01*
X5724943Y-12862793D02*
X5724943Y-12815174D01*
X5724943Y-12815174D02*
X5734467Y-12777079D01*
X5734467Y-12777079D02*
X5743991Y-12758031D01*
X5743991Y-12758031D02*
X5753515Y-12748508D01*
X5753515Y-12748508D02*
X5772562Y-12738984D01*
X5963039Y-12738984D02*
X5982086Y-12738984D01*
X5982086Y-12738984D02*
X6001134Y-12748508D01*
X6001134Y-12748508D02*
X6010658Y-12758031D01*
X6010658Y-12758031D02*
X6020182Y-12777079D01*
X6020182Y-12777079D02*
X6029705Y-12815174D01*
X6029705Y-12815174D02*
X6029705Y-12862793D01*
X6029705Y-12862793D02*
X6020182Y-12900888D01*
X6020182Y-12900888D02*
X6010658Y-12919936D01*
X6010658Y-12919936D02*
X6001134Y-12929460D01*
X6001134Y-12929460D02*
X5982086Y-12938984D01*
X5982086Y-12938984D02*
X5963039Y-12938984D01*
X5963039Y-12938984D02*
X5943991Y-12929460D01*
X5943991Y-12929460D02*
X5934467Y-12919936D01*
X5934467Y-12919936D02*
X5924943Y-12900888D01*
X5924943Y-12900888D02*
X5915420Y-12862793D01*
X5915420Y-12862793D02*
X5915420Y-12815174D01*
X5915420Y-12815174D02*
X5924943Y-12777079D01*
X5924943Y-12777079D02*
X5934467Y-12758031D01*
X5934467Y-12758031D02*
X5943991Y-12748508D01*
X5943991Y-12748508D02*
X5963039Y-12738984D01*
X6115420Y-12938984D02*
X6115420Y-12805650D01*
X6115420Y-12824698D02*
X6124943Y-12815174D01*
X6124943Y-12815174D02*
X6143991Y-12805650D01*
X6143991Y-12805650D02*
X6172563Y-12805650D01*
X6172563Y-12805650D02*
X6191610Y-12815174D01*
X6191610Y-12815174D02*
X6201134Y-12834222D01*
X6201134Y-12834222D02*
X6201134Y-12938984D01*
X6201134Y-12834222D02*
X6210658Y-12815174D01*
X6210658Y-12815174D02*
X6229705Y-12805650D01*
X6229705Y-12805650D02*
X6258277Y-12805650D01*
X6258277Y-12805650D02*
X6277324Y-12815174D01*
X6277324Y-12815174D02*
X6286848Y-12834222D01*
X6286848Y-12834222D02*
X6286848Y-12938984D01*
X6382086Y-12938984D02*
X6382086Y-12805650D01*
X6382086Y-12824698D02*
X6391610Y-12815174D01*
X6391610Y-12815174D02*
X6410658Y-12805650D01*
X6410658Y-12805650D02*
X6439229Y-12805650D01*
X6439229Y-12805650D02*
X6458277Y-12815174D01*
X6458277Y-12815174D02*
X6467801Y-12834222D01*
X6467801Y-12834222D02*
X6467801Y-12938984D01*
X6467801Y-12834222D02*
X6477324Y-12815174D01*
X6477324Y-12815174D02*
X6496372Y-12805650D01*
X6496372Y-12805650D02*
X6524943Y-12805650D01*
X6524943Y-12805650D02*
X6543991Y-12815174D01*
X6543991Y-12815174D02*
X6553515Y-12834222D01*
X6553515Y-12834222D02*
X6553515Y-12938984D01*
X6943991Y-12729460D02*
X6772563Y-12986603D01*
X7201134Y-12738984D02*
X7220182Y-12738984D01*
X7220182Y-12738984D02*
X7239229Y-12748508D01*
X7239229Y-12748508D02*
X7248753Y-12758031D01*
X7248753Y-12758031D02*
X7258277Y-12777079D01*
X7258277Y-12777079D02*
X7267801Y-12815174D01*
X7267801Y-12815174D02*
X7267801Y-12862793D01*
X7267801Y-12862793D02*
X7258277Y-12900888D01*
X7258277Y-12900888D02*
X7248753Y-12919936D01*
X7248753Y-12919936D02*
X7239229Y-12929460D01*
X7239229Y-12929460D02*
X7220182Y-12938984D01*
X7220182Y-12938984D02*
X7201134Y-12938984D01*
X7201134Y-12938984D02*
X7182086Y-12929460D01*
X7182086Y-12929460D02*
X7172563Y-12919936D01*
X7172563Y-12919936D02*
X7163039Y-12900888D01*
X7163039Y-12900888D02*
X7153515Y-12862793D01*
X7153515Y-12862793D02*
X7153515Y-12815174D01*
X7153515Y-12815174D02*
X7163039Y-12777079D01*
X7163039Y-12777079D02*
X7172563Y-12758031D01*
X7172563Y-12758031D02*
X7182086Y-12748508D01*
X7182086Y-12748508D02*
X7201134Y-12738984D01*
X7353515Y-12919936D02*
X7363039Y-12929460D01*
X7363039Y-12929460D02*
X7353515Y-12938984D01*
X7353515Y-12938984D02*
X7343991Y-12929460D01*
X7343991Y-12929460D02*
X7353515Y-12919936D01*
X7353515Y-12919936D02*
X7353515Y-12938984D01*
X7486848Y-12738984D02*
X7505896Y-12738984D01*
X7505896Y-12738984D02*
X7524944Y-12748508D01*
X7524944Y-12748508D02*
X7534467Y-12758031D01*
X7534467Y-12758031D02*
X7543991Y-12777079D01*
X7543991Y-12777079D02*
X7553515Y-12815174D01*
X7553515Y-12815174D02*
X7553515Y-12862793D01*
X7553515Y-12862793D02*
X7543991Y-12900888D01*
X7543991Y-12900888D02*
X7534467Y-12919936D01*
X7534467Y-12919936D02*
X7524944Y-12929460D01*
X7524944Y-12929460D02*
X7505896Y-12938984D01*
X7505896Y-12938984D02*
X7486848Y-12938984D01*
X7486848Y-12938984D02*
X7467801Y-12929460D01*
X7467801Y-12929460D02*
X7458277Y-12919936D01*
X7458277Y-12919936D02*
X7448753Y-12900888D01*
X7448753Y-12900888D02*
X7439229Y-12862793D01*
X7439229Y-12862793D02*
X7439229Y-12815174D01*
X7439229Y-12815174D02*
X7448753Y-12777079D01*
X7448753Y-12777079D02*
X7458277Y-12758031D01*
X7458277Y-12758031D02*
X7467801Y-12748508D01*
X7467801Y-12748508D02*
X7486848Y-12738984D01*
X7667801Y-12824698D02*
X7648753Y-12815174D01*
X7648753Y-12815174D02*
X7639229Y-12805650D01*
X7639229Y-12805650D02*
X7629706Y-12786603D01*
X7629706Y-12786603D02*
X7629706Y-12777079D01*
X7629706Y-12777079D02*
X7639229Y-12758031D01*
X7639229Y-12758031D02*
X7648753Y-12748508D01*
X7648753Y-12748508D02*
X7667801Y-12738984D01*
X7667801Y-12738984D02*
X7705896Y-12738984D01*
X7705896Y-12738984D02*
X7724944Y-12748508D01*
X7724944Y-12748508D02*
X7734467Y-12758031D01*
X7734467Y-12758031D02*
X7743991Y-12777079D01*
X7743991Y-12777079D02*
X7743991Y-12786603D01*
X7743991Y-12786603D02*
X7734467Y-12805650D01*
X7734467Y-12805650D02*
X7724944Y-12815174D01*
X7724944Y-12815174D02*
X7705896Y-12824698D01*
X7705896Y-12824698D02*
X7667801Y-12824698D01*
X7667801Y-12824698D02*
X7648753Y-12834222D01*
X7648753Y-12834222D02*
X7639229Y-12843746D01*
X7639229Y-12843746D02*
X7629706Y-12862793D01*
X7629706Y-12862793D02*
X7629706Y-12900888D01*
X7629706Y-12900888D02*
X7639229Y-12919936D01*
X7639229Y-12919936D02*
X7648753Y-12929460D01*
X7648753Y-12929460D02*
X7667801Y-12938984D01*
X7667801Y-12938984D02*
X7705896Y-12938984D01*
X7705896Y-12938984D02*
X7724944Y-12929460D01*
X7724944Y-12929460D02*
X7734467Y-12919936D01*
X7734467Y-12919936D02*
X7743991Y-12900888D01*
X7743991Y-12900888D02*
X7743991Y-12862793D01*
X7743991Y-12862793D02*
X7734467Y-12843746D01*
X7734467Y-12843746D02*
X7724944Y-12834222D01*
X7724944Y-12834222D02*
X7705896Y-12824698D01*
X7915420Y-12738984D02*
X7877325Y-12738984D01*
X7877325Y-12738984D02*
X7858277Y-12748508D01*
X7858277Y-12748508D02*
X7848753Y-12758031D01*
X7848753Y-12758031D02*
X7829706Y-12786603D01*
X7829706Y-12786603D02*
X7820182Y-12824698D01*
X7820182Y-12824698D02*
X7820182Y-12900888D01*
X7820182Y-12900888D02*
X7829706Y-12919936D01*
X7829706Y-12919936D02*
X7839229Y-12929460D01*
X7839229Y-12929460D02*
X7858277Y-12938984D01*
X7858277Y-12938984D02*
X7896372Y-12938984D01*
X7896372Y-12938984D02*
X7915420Y-12929460D01*
X7915420Y-12929460D02*
X7924944Y-12919936D01*
X7924944Y-12919936D02*
X7934467Y-12900888D01*
X7934467Y-12900888D02*
X7934467Y-12853269D01*
X7934467Y-12853269D02*
X7924944Y-12834222D01*
X7924944Y-12834222D02*
X7915420Y-12824698D01*
X7915420Y-12824698D02*
X7896372Y-12815174D01*
X7896372Y-12815174D02*
X7858277Y-12815174D01*
X7858277Y-12815174D02*
X7839229Y-12824698D01*
X7839229Y-12824698D02*
X7829706Y-12834222D01*
X7829706Y-12834222D02*
X7820182Y-12853269D01*
X8105896Y-12738984D02*
X8067801Y-12738984D01*
X8067801Y-12738984D02*
X8048753Y-12748508D01*
X8048753Y-12748508D02*
X8039229Y-12758031D01*
X8039229Y-12758031D02*
X8020182Y-12786603D01*
X8020182Y-12786603D02*
X8010658Y-12824698D01*
X8010658Y-12824698D02*
X8010658Y-12900888D01*
X8010658Y-12900888D02*
X8020182Y-12919936D01*
X8020182Y-12919936D02*
X8029706Y-12929460D01*
X8029706Y-12929460D02*
X8048753Y-12938984D01*
X8048753Y-12938984D02*
X8086848Y-12938984D01*
X8086848Y-12938984D02*
X8105896Y-12929460D01*
X8105896Y-12929460D02*
X8115420Y-12919936D01*
X8115420Y-12919936D02*
X8124944Y-12900888D01*
X8124944Y-12900888D02*
X8124944Y-12853269D01*
X8124944Y-12853269D02*
X8115420Y-12834222D01*
X8115420Y-12834222D02*
X8105896Y-12824698D01*
X8105896Y-12824698D02*
X8086848Y-12815174D01*
X8086848Y-12815174D02*
X8048753Y-12815174D01*
X8048753Y-12815174D02*
X8029706Y-12824698D01*
X8029706Y-12824698D02*
X8020182Y-12834222D01*
X8020182Y-12834222D02*
X8010658Y-12853269D01*
X8201134Y-12738984D02*
X8201134Y-12777079D01*
X8277325Y-12738984D02*
X8277325Y-12777079D01*
X8572563Y-13015174D02*
X8563039Y-13005650D01*
X8563039Y-13005650D02*
X8543991Y-12977079D01*
X8543991Y-12977079D02*
X8534468Y-12958031D01*
X8534468Y-12958031D02*
X8524944Y-12929460D01*
X8524944Y-12929460D02*
X8515420Y-12881841D01*
X8515420Y-12881841D02*
X8515420Y-12843746D01*
X8515420Y-12843746D02*
X8524944Y-12796127D01*
X8524944Y-12796127D02*
X8534468Y-12767555D01*
X8534468Y-12767555D02*
X8543991Y-12748508D01*
X8543991Y-12748508D02*
X8563039Y-12719936D01*
X8563039Y-12719936D02*
X8572563Y-12710412D01*
X8734468Y-12805650D02*
X8734468Y-12938984D01*
X8686849Y-12729460D02*
X8639230Y-12872317D01*
X8639230Y-12872317D02*
X8763039Y-12872317D01*
X8991611Y-12938984D02*
X8991611Y-12738984D01*
X9077325Y-12938984D02*
X9077325Y-12834222D01*
X9077325Y-12834222D02*
X9067801Y-12815174D01*
X9067801Y-12815174D02*
X9048753Y-12805650D01*
X9048753Y-12805650D02*
X9020182Y-12805650D01*
X9020182Y-12805650D02*
X9001134Y-12815174D01*
X9001134Y-12815174D02*
X8991611Y-12824698D01*
X9201134Y-12938984D02*
X9182087Y-12929460D01*
X9182087Y-12929460D02*
X9172563Y-12919936D01*
X9172563Y-12919936D02*
X9163039Y-12900888D01*
X9163039Y-12900888D02*
X9163039Y-12843746D01*
X9163039Y-12843746D02*
X9172563Y-12824698D01*
X9172563Y-12824698D02*
X9182087Y-12815174D01*
X9182087Y-12815174D02*
X9201134Y-12805650D01*
X9201134Y-12805650D02*
X9229706Y-12805650D01*
X9229706Y-12805650D02*
X9248753Y-12815174D01*
X9248753Y-12815174D02*
X9258277Y-12824698D01*
X9258277Y-12824698D02*
X9267801Y-12843746D01*
X9267801Y-12843746D02*
X9267801Y-12900888D01*
X9267801Y-12900888D02*
X9258277Y-12919936D01*
X9258277Y-12919936D02*
X9248753Y-12929460D01*
X9248753Y-12929460D02*
X9229706Y-12938984D01*
X9229706Y-12938984D02*
X9201134Y-12938984D01*
X9382087Y-12938984D02*
X9363039Y-12929460D01*
X9363039Y-12929460D02*
X9353515Y-12910412D01*
X9353515Y-12910412D02*
X9353515Y-12738984D01*
X9534468Y-12929460D02*
X9515420Y-12938984D01*
X9515420Y-12938984D02*
X9477325Y-12938984D01*
X9477325Y-12938984D02*
X9458277Y-12929460D01*
X9458277Y-12929460D02*
X9448753Y-12910412D01*
X9448753Y-12910412D02*
X9448753Y-12834222D01*
X9448753Y-12834222D02*
X9458277Y-12815174D01*
X9458277Y-12815174D02*
X9477325Y-12805650D01*
X9477325Y-12805650D02*
X9515420Y-12805650D01*
X9515420Y-12805650D02*
X9534468Y-12815174D01*
X9534468Y-12815174D02*
X9543992Y-12834222D01*
X9543992Y-12834222D02*
X9543992Y-12853269D01*
X9543992Y-12853269D02*
X9448753Y-12872317D01*
X9620182Y-12929460D02*
X9639230Y-12938984D01*
X9639230Y-12938984D02*
X9677325Y-12938984D01*
X9677325Y-12938984D02*
X9696373Y-12929460D01*
X9696373Y-12929460D02*
X9705896Y-12910412D01*
X9705896Y-12910412D02*
X9705896Y-12900888D01*
X9705896Y-12900888D02*
X9696373Y-12881841D01*
X9696373Y-12881841D02*
X9677325Y-12872317D01*
X9677325Y-12872317D02*
X9648753Y-12872317D01*
X9648753Y-12872317D02*
X9629706Y-12862793D01*
X9629706Y-12862793D02*
X9620182Y-12843746D01*
X9620182Y-12843746D02*
X9620182Y-12834222D01*
X9620182Y-12834222D02*
X9629706Y-12815174D01*
X9629706Y-12815174D02*
X9648753Y-12805650D01*
X9648753Y-12805650D02*
X9677325Y-12805650D01*
X9677325Y-12805650D02*
X9696373Y-12815174D01*
X9772563Y-13015174D02*
X9782087Y-13005650D01*
X9782087Y-13005650D02*
X9801134Y-12977079D01*
X9801134Y-12977079D02*
X9810658Y-12958031D01*
X9810658Y-12958031D02*
X9820182Y-12929460D01*
X9820182Y-12929460D02*
X9829706Y-12881841D01*
X9829706Y-12881841D02*
X9829706Y-12843746D01*
X9829706Y-12843746D02*
X9820182Y-12796127D01*
X9820182Y-12796127D02*
X9810658Y-12767555D01*
X9810658Y-12767555D02*
X9801134Y-12748508D01*
X9801134Y-12748508D02*
X9782087Y-12719936D01*
X9782087Y-12719936D02*
X9772563Y-12710412D01*
X10134468Y-13015174D02*
X10124944Y-13005650D01*
X10124944Y-13005650D02*
X10105896Y-12977079D01*
X10105896Y-12977079D02*
X10096373Y-12958031D01*
X10096373Y-12958031D02*
X10086849Y-12929460D01*
X10086849Y-12929460D02*
X10077325Y-12881841D01*
X10077325Y-12881841D02*
X10077325Y-12843746D01*
X10077325Y-12843746D02*
X10086849Y-12796127D01*
X10086849Y-12796127D02*
X10096373Y-12767555D01*
X10096373Y-12767555D02*
X10105896Y-12748508D01*
X10105896Y-12748508D02*
X10124944Y-12719936D01*
X10124944Y-12719936D02*
X10134468Y-12710412D01*
X10210658Y-12805650D02*
X10210658Y-12938984D01*
X10210658Y-12824698D02*
X10220182Y-12815174D01*
X10220182Y-12815174D02*
X10239230Y-12805650D01*
X10239230Y-12805650D02*
X10267801Y-12805650D01*
X10267801Y-12805650D02*
X10286849Y-12815174D01*
X10286849Y-12815174D02*
X10296373Y-12834222D01*
X10296373Y-12834222D02*
X10296373Y-12938984D01*
X10420182Y-12938984D02*
X10401134Y-12929460D01*
X10401134Y-12929460D02*
X10391611Y-12919936D01*
X10391611Y-12919936D02*
X10382087Y-12900888D01*
X10382087Y-12900888D02*
X10382087Y-12843746D01*
X10382087Y-12843746D02*
X10391611Y-12824698D01*
X10391611Y-12824698D02*
X10401134Y-12815174D01*
X10401134Y-12815174D02*
X10420182Y-12805650D01*
X10420182Y-12805650D02*
X10448754Y-12805650D01*
X10448754Y-12805650D02*
X10467801Y-12815174D01*
X10467801Y-12815174D02*
X10477325Y-12824698D01*
X10477325Y-12824698D02*
X10486849Y-12843746D01*
X10486849Y-12843746D02*
X10486849Y-12900888D01*
X10486849Y-12900888D02*
X10477325Y-12919936D01*
X10477325Y-12919936D02*
X10467801Y-12929460D01*
X10467801Y-12929460D02*
X10448754Y-12938984D01*
X10448754Y-12938984D02*
X10420182Y-12938984D01*
X10543992Y-12805650D02*
X10620182Y-12805650D01*
X10572563Y-12738984D02*
X10572563Y-12910412D01*
X10572563Y-12910412D02*
X10582087Y-12929460D01*
X10582087Y-12929460D02*
X10601134Y-12938984D01*
X10601134Y-12938984D02*
X10620182Y-12938984D01*
X10839230Y-12805650D02*
X10839230Y-13005650D01*
X10839230Y-12815174D02*
X10858277Y-12805650D01*
X10858277Y-12805650D02*
X10896373Y-12805650D01*
X10896373Y-12805650D02*
X10915420Y-12815174D01*
X10915420Y-12815174D02*
X10924944Y-12824698D01*
X10924944Y-12824698D02*
X10934468Y-12843746D01*
X10934468Y-12843746D02*
X10934468Y-12900888D01*
X10934468Y-12900888D02*
X10924944Y-12919936D01*
X10924944Y-12919936D02*
X10915420Y-12929460D01*
X10915420Y-12929460D02*
X10896373Y-12938984D01*
X10896373Y-12938984D02*
X10858277Y-12938984D01*
X10858277Y-12938984D02*
X10839230Y-12929460D01*
X11048754Y-12938984D02*
X11029706Y-12929460D01*
X11029706Y-12929460D02*
X11020182Y-12910412D01*
X11020182Y-12910412D02*
X11020182Y-12738984D01*
X11210658Y-12938984D02*
X11210658Y-12834222D01*
X11210658Y-12834222D02*
X11201134Y-12815174D01*
X11201134Y-12815174D02*
X11182087Y-12805650D01*
X11182087Y-12805650D02*
X11143992Y-12805650D01*
X11143992Y-12805650D02*
X11124944Y-12815174D01*
X11210658Y-12929460D02*
X11191611Y-12938984D01*
X11191611Y-12938984D02*
X11143992Y-12938984D01*
X11143992Y-12938984D02*
X11124944Y-12929460D01*
X11124944Y-12929460D02*
X11115420Y-12910412D01*
X11115420Y-12910412D02*
X11115420Y-12891365D01*
X11115420Y-12891365D02*
X11124944Y-12872317D01*
X11124944Y-12872317D02*
X11143992Y-12862793D01*
X11143992Y-12862793D02*
X11191611Y-12862793D01*
X11191611Y-12862793D02*
X11210658Y-12853269D01*
X11277325Y-12805650D02*
X11353515Y-12805650D01*
X11305896Y-12738984D02*
X11305896Y-12910412D01*
X11305896Y-12910412D02*
X11315420Y-12929460D01*
X11315420Y-12929460D02*
X11334468Y-12938984D01*
X11334468Y-12938984D02*
X11353515Y-12938984D01*
X11496373Y-12929460D02*
X11477325Y-12938984D01*
X11477325Y-12938984D02*
X11439230Y-12938984D01*
X11439230Y-12938984D02*
X11420182Y-12929460D01*
X11420182Y-12929460D02*
X11410658Y-12910412D01*
X11410658Y-12910412D02*
X11410658Y-12834222D01*
X11410658Y-12834222D02*
X11420182Y-12815174D01*
X11420182Y-12815174D02*
X11439230Y-12805650D01*
X11439230Y-12805650D02*
X11477325Y-12805650D01*
X11477325Y-12805650D02*
X11496373Y-12815174D01*
X11496373Y-12815174D02*
X11505896Y-12834222D01*
X11505896Y-12834222D02*
X11505896Y-12853269D01*
X11505896Y-12853269D02*
X11410658Y-12872317D01*
X11677325Y-12938984D02*
X11677325Y-12738984D01*
X11677325Y-12929460D02*
X11658277Y-12938984D01*
X11658277Y-12938984D02*
X11620182Y-12938984D01*
X11620182Y-12938984D02*
X11601134Y-12929460D01*
X11601134Y-12929460D02*
X11591611Y-12919936D01*
X11591611Y-12919936D02*
X11582087Y-12900888D01*
X11582087Y-12900888D02*
X11582087Y-12843746D01*
X11582087Y-12843746D02*
X11591611Y-12824698D01*
X11591611Y-12824698D02*
X11601134Y-12815174D01*
X11601134Y-12815174D02*
X11620182Y-12805650D01*
X11620182Y-12805650D02*
X11658277Y-12805650D01*
X11658277Y-12805650D02*
X11677325Y-12815174D01*
X11753515Y-13015174D02*
X11763039Y-13005650D01*
X11763039Y-13005650D02*
X11782087Y-12977079D01*
X11782087Y-12977079D02*
X11791611Y-12958031D01*
X11791611Y-12958031D02*
X11801134Y-12929460D01*
X11801134Y-12929460D02*
X11810658Y-12881841D01*
X11810658Y-12881841D02*
X11810658Y-12843746D01*
X11810658Y-12843746D02*
X11801134Y-12796127D01*
X11801134Y-12796127D02*
X11791611Y-12767555D01*
X11791611Y-12767555D02*
X11782087Y-12748508D01*
X11782087Y-12748508D02*
X11763039Y-12719936D01*
X11763039Y-12719936D02*
X11753515Y-12710412D01*
M02*
